<svg width="32" height="24" viewBox="0 0 32 24" fill="none" xmlns="http://www.w3.org/2000/svg" xmlns:xlink="http://www.w3.org/1999/xlink">
<path d="M16.708,23.005L10.153,22.885C8.031,22.844 5.903,22.927 3.823,22.494C0.657,21.848 0.433,18.679 0.199,16.02C-0.125,12.283 0,8.477 0.61,4.771C0.955,2.691 2.31,1.45 4.407,1.315C11.483,0.825 18.606,0.883 25.666,1.112C26.412,1.133 27.163,1.248 27.898,1.378C31.527,2.014 31.616,5.606 31.851,8.629C32.086,11.684 31.987,14.754 31.538,17.788C31.178,20.3 30.49,22.406 27.585,22.61C23.945,22.876 20.389,23.09 16.739,23.021C16.739,23.005 16.718,23.005 16.708,23.005ZM12.854,16.646C15.597,15.071 18.288,13.523 21.015,11.959C18.267,10.385 15.581,8.837 12.854,7.273L12.854,16.646Z" fill="#FFFFFF"/>
</svg>
