<svg width="54" height="64" viewBox="0 0 54 64" fill="none" xmlns="http://www.w3.org/2000/svg" xmlns:xlink="http://www.w3.org/1999/xlink">
<path d="M52.113,48.876C51.179,51.05 50.027,53.123 48.673,55.063C46.862,57.643 45.381,59.428 44.239,60.42C42.47,62.047 40.573,62.881 38.542,62.928C37.085,62.928 35.327,62.513 33.281,61.672C31.227,60.835 29.341,60.419 27.615,60.419C25.806,60.419 23.866,60.835 21.79,61.672C19.711,62.513 18.037,62.952 16.757,62.995C14.81,63.079 12.869,62.221 10.93,60.42C9.694,59.34 8.149,57.492 6.295,54.873C4.307,52.076 2.673,48.833 1.393,45.135C0.022,41.141 -0.666,37.273 -0.666,33.529C-0.666,29.24 0.261,25.541 2.117,22.441C3.577,19.951 5.517,17.988 7.946,16.545C10.329,15.119 13.049,14.352 15.826,14.321C17.373,14.321 19.401,14.8 21.922,15.74C24.435,16.683 26.049,17.161 26.757,17.161C27.285,17.161 29.078,16.601 32.117,15.487C34.991,14.452 37.417,14.024 39.403,14.193C44.789,14.628 48.834,16.751 51.523,20.575C46.709,23.492 44.326,27.579 44.374,32.821C44.417,36.905 45.898,40.304 48.81,43.001C50.13,44.255 51.603,45.223 53.242,45.909C52.898,46.91 52.522,47.9 52.113,48.876L52.113,48.876ZM39.763,0.281C39.763,3.481 38.594,6.471 36.263,9.236C33.45,12.525 30.049,14.425 26.359,14.125C26.31,13.723 26.285,13.318 26.285,12.912C26.285,9.84 27.622,6.552 29.998,3.863C31.185,2.501 32.691,1.369 34.521,0.467C36.347,-0.423 38.073,-0.915 39.697,-1C39.743,-0.572 39.763,-0.144 39.763,0.28L39.763,0.281Z" fill="#FFFFFF"/>
</svg>
