<svg width="54" height="64" viewBox="0 0 54 64" fill="none" xmlns="http://www.w3.org/2000/svg" xmlns:xlink="http://www.w3.org/1999/xlink">
<path d="M52.112,48.876C51.179,51.05 50.026,53.123 48.672,55.063C46.861,57.643 45.38,59.428 44.239,60.42C42.469,62.047 40.572,62.881 38.541,62.928C37.084,62.928 35.327,62.513 33.28,61.672C31.227,60.835 29.34,60.419 27.615,60.419C25.805,60.419 23.865,60.835 21.789,61.672C19.711,62.513 18.036,62.952 16.756,62.995C14.809,63.079 12.868,62.221 10.929,60.42C9.693,59.34 8.148,57.492 6.295,54.873C4.307,52.076 2.672,48.833 1.392,45.135C0.021,41.141 -0.667,37.273 -0.667,33.529C-0.667,29.24 0.26,25.541 2.116,22.441C3.576,19.951 5.516,17.988 7.945,16.545C10.329,15.119 13.048,14.352 15.825,14.321C17.372,14.321 19.4,14.8 21.921,15.74C24.435,16.683 26.048,17.161 26.756,17.161C27.284,17.161 29.077,16.601 32.116,15.487C34.991,14.452 37.416,14.024 39.403,14.193C44.788,14.628 48.833,16.751 51.523,20.575C46.708,23.492 44.325,27.579 44.373,32.821C44.416,36.905 45.897,40.304 48.809,43.001C50.129,44.255 51.603,45.223 53.241,45.909C52.898,46.91 52.521,47.9 52.112,48.876L52.112,48.876ZM39.763,0.281C39.763,3.481 38.593,6.471 36.263,9.236C33.449,12.525 30.048,14.425 26.359,14.125C26.309,13.723 26.284,13.318 26.284,12.912C26.284,9.84 27.621,6.552 29.997,3.863C31.184,2.501 32.691,1.369 34.52,0.467C36.347,-0.423 38.072,-0.915 39.696,-1C39.743,-0.572 39.763,-0.144 39.763,0.28L39.763,0.281Z" fill="#FFFFFF"/>
</svg>
