<svg width="26" height="32" viewBox="0 0 26 32" fill="none" xmlns="http://www.w3.org/2000/svg" xmlns:xlink="http://www.w3.org/1999/xlink">
<path d="M10.048,0.107C4.73,0.701 -0.569,5.003 -0.787,11.149C-0.925,14.901 0.141,17.716 3.712,18.507C5.262,15.773 3.212,15.17 2.893,13.192C1.584,5.087 12.241,-0.44 17.818,5.219C21.677,9.137 19.137,21.19 12.913,19.938C6.952,18.741 15.831,9.146 11.073,7.262C7.205,5.731 5.149,11.945 6.983,15.032C5.908,20.341 3.593,25.343 4.53,32.001C7.57,29.795 8.595,25.571 9.436,21.165C10.964,22.093 11.779,23.059 13.729,23.209C20.918,23.765 24.933,16.032 23.952,8.899C23.08,2.575 16.769,-0.643 10.048,0.107Z" fill="#5F6C72"/>
</svg>
