<svg width="22" height="18" viewBox="0 0 22 18" fill="none" xmlns="http://www.w3.org/2000/svg" xmlns:xlink="http://www.w3.org/1999/xlink">
<path d="M21.039,3.289C21.82,2.508 21.82,1.242 21.039,0.461C20.258,-0.32 18.992,-0.32 18.211,0.461L21.039,3.289ZM7.375,14.125L5.961,15.539C6.742,16.32 8.008,16.32 8.789,15.539L7.375,14.125ZM2.664,6.586C1.883,5.805 0.617,5.805 -0.164,6.586C-0.945,7.367 -0.945,8.633 -0.164,9.414L2.664,6.586ZM18.211,0.461L5.961,12.711L8.789,15.539L21.039,3.289L18.211,0.461ZM8.789,12.711L2.664,6.586L-0.164,9.414L5.961,15.539L8.789,12.711Z" fill="#FFFFFF"/>
</svg>
