<svg width="24" height="24" viewBox="0 0 24 24" fill="none" xmlns="http://www.w3.org/2000/svg" xmlns:xlink="http://www.w3.org/1999/xlink">
<path d="M19.811,6.311C20.396,5.725 20.396,4.775 19.811,4.189C19.225,3.604 18.275,3.604 17.689,4.189L19.811,6.311ZM4.189,17.689C3.604,18.275 3.604,19.225 4.189,19.811C4.775,20.396 5.725,20.396 6.311,19.811L4.189,17.689ZM17.689,4.189L4.189,17.689L6.311,19.811L19.811,6.311L17.689,4.189Z" fill="#929FA5"/>
<path d="M17.689,19.811C18.275,20.396 19.225,20.396 19.811,19.811C20.396,19.225 20.396,18.275 19.811,17.689L17.689,19.811ZM6.311,4.189C5.725,3.604 4.775,3.604 4.189,4.189C3.604,4.775 3.604,5.725 4.189,6.311L6.311,4.189ZM19.811,17.689L6.311,4.189L4.189,6.311L17.689,19.811L19.811,17.689Z" fill="#929FA5"/>
</svg>
