<svg width="48" height="48" viewBox="0 0 48 48" fill="none" xmlns="http://www.w3.org/2000/svg" xmlns:xlink="http://www.w3.org/1999/xlink">
<path d="M14.963,20.193C15.791,20.193 16.463,19.522 16.463,18.693C16.463,17.865 15.791,17.193 14.963,17.193L14.963,20.193ZM5.963,18.693L4.463,18.693C4.463,19.522 5.134,20.193 5.963,20.193L5.963,18.693ZM7.463,9.693C7.463,8.865 6.791,8.193 5.963,8.193C5.134,8.193 4.463,8.865 4.463,9.693L7.463,9.693ZM14.963,17.193L5.963,17.193L5.963,20.193L14.963,20.193L14.963,17.193ZM7.463,18.693L7.463,9.693L4.463,9.693L4.463,18.693L7.463,18.693Z" fill="#5F6C72"/>
<path d="M34.601,13.398C35.187,13.984 36.136,13.984 36.722,13.399C37.309,12.814 37.309,11.864 36.724,11.278L34.601,13.398ZM12.338,12.338L13.397,13.4L13.399,13.398L12.338,12.338ZM4.903,17.632C4.317,18.217 4.315,19.166 4.9,19.753C5.485,20.34 6.435,20.341 7.022,19.756L4.903,17.632ZM36.724,11.278C35.054,9.605 33.071,8.278 30.887,7.373L29.738,10.144C31.557,10.899 33.21,12.004 34.601,13.398L36.724,11.278ZM30.887,7.373C28.704,6.468 26.364,6.002 24,6.002L24,9.002C25.969,9.002 27.919,9.39 29.738,10.144L30.887,7.373ZM24,6.002C21.636,6.002 19.296,6.468 17.113,7.373L18.262,10.144C20.081,9.39 22.031,9.002 24,9.002L24,6.002ZM17.113,7.373C14.93,8.278 12.946,9.605 11.276,11.278L13.399,13.398C14.79,12.004 16.443,10.899 18.262,10.144L17.113,7.373ZM11.278,11.275L4.903,17.632L7.022,19.756L13.397,13.4L11.278,11.275Z" fill="#5F6C72"/>
<path d="M33.037,27.807C32.209,27.807 31.537,28.478 31.537,29.307C31.537,30.135 32.209,30.807 33.037,30.807L33.037,27.807ZM42.037,29.307L43.537,29.307C43.537,28.478 42.866,27.807 42.037,27.807L42.037,29.307ZM40.537,38.307C40.537,39.135 41.209,39.807 42.037,39.807C42.866,39.807 43.537,39.135 43.537,38.307L40.537,38.307ZM33.037,30.807L42.037,30.807L42.037,27.807L33.037,27.807L33.037,30.807ZM40.537,29.307L40.537,38.307L43.537,38.307L43.537,29.307L40.537,29.307Z" fill="#5F6C72"/>
<path d="M13.399,34.603C12.814,34.017 11.864,34.016 11.278,34.601C10.691,35.187 10.691,36.137 11.276,36.723L13.399,34.603ZM35.663,35.663L34.603,34.601L34.601,34.603L35.663,35.663ZM43.097,30.369C43.683,29.784 43.685,28.834 43.1,28.248C42.515,27.661 41.565,27.659 40.978,28.244L43.097,30.369ZM11.276,36.723C12.946,38.395 14.93,39.722 17.113,40.627L18.262,37.856C16.443,37.102 14.79,35.996 13.399,34.603L11.276,36.723ZM17.113,40.627C19.296,41.533 21.636,41.999 24,41.999L24,38.999C22.031,38.999 20.081,38.61 18.262,37.856L17.113,40.627ZM24,41.999C26.364,41.999 28.704,41.533 30.887,40.627L29.738,37.856C27.919,38.61 25.969,38.999 24,38.999L24,41.999ZM30.887,40.627C33.071,39.722 35.054,38.395 36.724,36.723L34.601,34.603C33.21,35.996 31.557,37.102 29.738,37.856L30.887,40.627ZM36.722,36.725L43.097,30.369L40.978,28.244L34.603,34.601L36.722,36.725Z" fill="#5F6C72"/>
</svg>
