<svg width="48" height="48" viewBox="0 0 48 48" fill="none" xmlns="http://www.w3.org/2000/svg" xmlns:xlink="http://www.w3.org/1999/xlink">
<path d="M33.038,17.193C32.209,17.193 31.538,17.865 31.538,18.693C31.538,19.522 32.209,20.193 33.038,20.193L33.038,17.193ZM42.038,18.693L42.038,20.193C42.866,20.193 43.538,19.522 43.538,18.693L42.038,18.693ZM43.538,9.693C43.538,8.865 42.866,8.193 42.038,8.193C41.209,8.193 40.538,8.865 40.538,9.693L43.538,9.693ZM33.038,20.193L42.038,20.193L42.038,17.193L33.038,17.193L33.038,20.193ZM43.538,18.693L43.538,9.693L40.538,9.693L40.538,18.693L43.538,18.693Z" fill="#475156"/>
<path d="M11.276,11.278C10.691,11.864 10.691,12.814 11.278,13.399C11.864,13.984 12.813,13.984 13.399,13.398L11.276,11.278ZM24,7.502L24,9.002L24,7.502ZM35.662,12.338L34.601,13.398L34.603,13.4L35.662,12.338ZM40.978,19.756C41.565,20.341 42.515,20.34 43.1,19.753C43.685,19.166 43.683,18.217 43.096,17.632L40.978,19.756ZM13.399,13.398C14.79,12.004 16.443,10.899 18.262,10.144L17.113,7.373C14.929,8.278 12.946,9.605 11.276,11.278L13.399,13.398ZM18.262,10.144C20.081,9.39 22.031,9.002 24,9.002L24,6.002C21.636,6.002 19.296,6.468 17.113,7.373L18.262,10.144ZM24,9.002C25.969,9.002 27.919,9.39 29.738,10.144L30.887,7.373C28.704,6.468 26.363,6.002 24,6.002L24,9.002ZM29.738,10.144C31.557,10.899 33.21,12.004 34.601,13.398L36.724,11.278C35.054,9.605 33.07,8.278 30.887,7.373L29.738,10.144ZM34.603,13.4L40.978,19.756L43.096,17.632L36.721,11.275L34.603,13.4Z" fill="#475156"/>
<path d="M14.962,30.807C15.791,30.807 16.462,30.135 16.462,29.307C16.462,28.478 15.791,27.807 14.962,27.807L14.962,30.807ZM5.962,29.307L5.962,27.807C5.134,27.807 4.462,28.478 4.462,29.307L5.962,29.307ZM4.462,38.307C4.462,39.135 5.134,39.807 5.962,39.807C6.791,39.807 7.462,39.135 7.462,38.307L4.462,38.307ZM14.962,27.807L5.962,27.807L5.962,30.807L14.962,30.807L14.962,27.807ZM4.462,29.307L4.462,38.307L7.462,38.307L7.462,29.307L4.462,29.307Z" fill="#475156"/>
<path d="M36.724,36.723C37.309,36.137 37.308,35.187 36.722,34.601C36.136,34.016 35.186,34.017 34.601,34.603L36.724,36.723ZM12.337,35.663L13.399,34.603L13.397,34.601L12.337,35.663ZM7.021,28.244C6.435,27.659 5.485,27.661 4.9,28.248C4.315,28.834 4.317,29.784 4.903,30.369L7.021,28.244ZM34.601,34.603C33.21,35.996 31.557,37.102 29.738,37.856L30.887,40.627C33.07,39.722 35.054,38.395 36.724,36.723L34.601,34.603ZM29.738,37.856C27.919,38.61 25.969,38.999 24,38.999L24,41.999C26.363,41.999 28.704,41.533 30.887,40.627L29.738,37.856ZM24,38.999C22.031,38.999 20.081,38.61 18.262,37.856L17.113,40.627C19.296,41.533 21.636,41.999 24,41.999L24,38.999ZM18.262,37.856C16.443,37.102 14.79,35.996 13.399,34.603L11.276,36.723C12.946,38.395 14.929,39.722 17.113,40.627L18.262,37.856ZM13.397,34.601L7.021,28.244L4.903,30.369L11.278,36.725L13.397,34.601Z" fill="#475156"/>
</svg>
