<svg width="62" height="64" viewBox="0 0 62 64" fill="none" xmlns="http://www.w3.org/2000/svg" xmlns:xlink="http://www.w3.org/1999/xlink">
<path d="M53.097,51.671C27.19,64.001 11.112,53.685 0.82,47.419C0.183,47.025 -0.9,47.512 0.039,48.591C3.468,52.748 14.705,62.769 29.373,62.769C44.051,62.769 52.782,54.76 53.875,53.363C54.96,51.978 54.193,51.214 53.097,51.671L53.097,51.671ZM60.373,47.653C59.677,46.747 56.143,46.578 53.918,46.852C51.69,47.117 48.346,48.479 48.637,49.296C48.786,49.602 49.09,49.465 50.621,49.327C52.156,49.174 56.455,48.632 57.351,49.803C58.251,50.982 55.98,56.599 55.565,57.505C55.164,58.411 55.718,58.645 56.471,58.042C57.213,57.438 58.557,55.876 59.459,53.666C60.355,51.443 60.902,48.343 60.373,47.653L60.373,47.653Z" fill="#FF9900"/>
<path d="M35.677,26.512C35.677,29.747 35.759,32.445 34.124,35.318C32.804,37.654 30.713,39.09 28.378,39.09C25.189,39.09 23.332,36.661 23.332,33.076C23.332,25.998 29.674,24.713 35.677,24.713L35.677,26.512ZM44.051,46.752C43.502,47.243 42.708,47.278 42.089,46.951C39.333,44.662 38.842,43.599 37.324,41.415C32.769,46.063 29.545,47.453 23.636,47.453C16.652,47.453 11.209,43.143 11.209,34.512C11.209,27.773 14.865,23.183 20.062,20.941C24.57,18.955 30.865,18.605 35.677,18.056L35.677,16.982C35.677,15.008 35.829,12.672 34.673,10.967C33.656,9.437 31.718,8.806 30.012,8.806C26.848,8.806 24.021,10.43 23.332,13.793C23.192,14.541 22.643,15.277 21.896,15.312L13.837,14.447C13.159,14.295 12.412,13.747 12.599,12.707C14.456,2.943 23.273,0 31.169,0C35.21,0 40.489,1.075 43.677,4.135C47.718,7.907 47.333,12.941 47.333,18.418L47.333,31.359C47.333,35.248 48.944,36.953 50.463,39.055C51,39.803 51.117,40.702 50.439,41.263C48.746,42.676 45.732,45.304 44.074,46.776L44.051,46.752Z" clip-rule="evenodd" fill-rule="evenodd" fill="#000000"/>
<path d="M53.097,51.671C27.19,64.001 11.112,53.685 0.82,47.419C0.183,47.025 -0.9,47.512 0.039,48.591C3.468,52.748 14.705,62.769 29.373,62.769C44.051,62.769 52.782,54.76 53.875,53.363C54.96,51.978 54.193,51.214 53.097,51.671L53.097,51.671ZM60.373,47.653C59.677,46.747 56.143,46.578 53.918,46.852C51.69,47.117 48.346,48.479 48.637,49.296C48.786,49.602 49.09,49.465 50.621,49.327C52.156,49.174 56.455,48.632 57.351,49.803C58.251,50.982 55.98,56.599 55.565,57.505C55.164,58.411 55.718,58.645 56.471,58.042C57.213,57.438 58.557,55.876 59.459,53.666C60.355,51.443 60.902,48.343 60.373,47.653L60.373,47.653Z" fill="#FF9900"/>
<path d="M35.677,26.512C35.677,29.747 35.759,32.445 34.124,35.318C32.804,37.654 30.713,39.09 28.378,39.09C25.189,39.09 23.332,36.661 23.332,33.076C23.332,25.998 29.674,24.713 35.677,24.713L35.677,26.512ZM44.051,46.752C43.502,47.243 42.708,47.278 42.089,46.951C39.333,44.662 38.842,43.599 37.324,41.415C32.769,46.063 29.545,47.453 23.636,47.453C16.652,47.453 11.209,43.143 11.209,34.512C11.209,27.773 14.865,23.183 20.062,20.941C24.57,18.955 30.865,18.605 35.677,18.056L35.677,16.982C35.677,15.008 35.829,12.672 34.673,10.967C33.656,9.437 31.718,8.806 30.012,8.806C26.848,8.806 24.021,10.43 23.332,13.793C23.192,14.541 22.643,15.277 21.896,15.312L13.837,14.447C13.159,14.295 12.412,13.747 12.599,12.707C14.456,2.943 23.273,0 31.169,0C35.21,0 40.489,1.075 43.677,4.135C47.718,7.907 47.333,12.941 47.333,18.418L47.333,31.359C47.333,35.248 48.944,36.953 50.463,39.055C51,39.803 51.117,40.702 50.439,41.263C48.746,42.676 45.732,45.304 44.074,46.776L44.051,46.752Z" clip-rule="evenodd" fill-rule="evenodd" fill="#000000"/>
</svg>
