<svg width="96" height="96" viewBox="0 0 96 96" fill="none" xmlns="http://www.w3.org/2000/svg" xmlns:xlink="http://www.w3.org/1999/xlink">
<path d="M96,48C96,74.51 74.51,96 48,96C21.49,96 0,74.51 0,48C0,21.49 21.49,0 48,0C74.51,0 96,21.49 96,48ZM72,48C72,61.255 61.255,72 48,72C34.745,72 24,61.255 24,48C24,34.745 34.745,24 48,24C61.255,24 72,34.745 72,48ZM48,64C56.837,64 64,56.837 64,48C64,39.163 56.837,32 48,32C39.163,32 32,39.163 32,48C32,56.837 39.163,64 48,64Z" clip-rule="evenodd" fill-rule="evenodd" fill="#FA8232"/>
</svg>
