<svg width="32" height="32" viewBox="0 0 32 32" fill="none" xmlns="http://www.w3.org/2000/svg" xmlns:xlink="http://www.w3.org/1999/xlink">
<path d="M16,32C24.837,32 32,24.837 32,16C32,7.163 24.837,0 16,0C7.163,0 0,7.163 0,16C0,24.837 7.163,32 16,32Z" fill="#FFFFFF"/>
<path d="M26.672,16C26.675,16.219 26.648,16.438 26.591,16.65C26.533,16.861 26.446,17.064 26.331,17.251C26.217,17.439 26.077,17.609 25.916,17.757C25.754,17.906 25.573,18.031 25.376,18.128C25.381,18.187 25.384,18.245 25.386,18.304C25.391,18.422 25.391,18.539 25.386,18.656C25.384,18.715 25.381,18.774 25.376,18.832C25.376,22.416 21.2,25.328 16.048,25.328C10.896,25.328 6.72,22.416 6.72,18.832C6.716,18.774 6.712,18.715 6.71,18.656C6.705,18.539 6.705,18.422 6.71,18.304C6.712,18.245 6.716,18.187 6.72,18.128C6.412,17.987 6.139,17.78 5.919,17.523C5.699,17.265 5.538,16.963 5.446,16.637C5.354,16.311 5.335,15.969 5.389,15.634C5.443,15.3 5.569,14.981 5.758,14.7C5.947,14.419 6.195,14.183 6.485,14.008C6.774,13.832 7.099,13.722 7.435,13.684C7.772,13.647 8.113,13.682 8.434,13.789C8.755,13.897 9.049,14.072 9.296,14.304C9.754,13.994 10.234,13.717 10.732,13.476C11.23,13.235 11.744,13.03 12.272,12.864C12.8,12.697 13.339,12.57 13.885,12.481C14.431,12.393 14.983,12.345 15.536,12.336L16.72,6.784C16.733,6.72 16.759,6.659 16.796,6.605C16.833,6.551 16.881,6.504 16.936,6.469C16.991,6.433 17.052,6.409 17.117,6.397C17.182,6.385 17.248,6.386 17.312,6.4L21.232,7.184C21.628,6.505 22.458,6.213 23.191,6.497C23.925,6.78 24.344,7.554 24.18,8.323C24.016,9.091 23.318,9.627 22.533,9.587C21.748,9.547 21.108,8.942 21.024,8.16L17.6,7.44L16.56,12.432C17.106,12.444 17.652,12.495 18.191,12.585C19.271,12.765 20.319,13.1 21.303,13.579C21.794,13.819 22.268,14.093 22.72,14.4C23.045,14.088 23.454,13.877 23.896,13.792C24.339,13.707 24.796,13.751 25.214,13.92C25.632,14.089 25.992,14.376 26.251,14.745C26.509,15.114 26.656,15.55 26.672,16L26.672,16ZM10.794,18.213C10.874,18.407 10.992,18.583 11.141,18.731C11.289,18.88 11.466,18.998 11.66,19.079C11.854,19.159 12.062,19.2 12.272,19.2C12.919,19.2 13.502,18.81 13.75,18.213C13.998,17.615 13.861,16.927 13.403,16.469C12.946,16.011 12.258,15.874 11.66,16.122C11.062,16.37 10.672,16.953 10.672,17.6C10.672,17.81 10.713,18.018 10.794,18.213L10.794,18.213ZM19.958,22.054C20.04,21.974 20.087,21.864 20.088,21.75C20.09,21.635 20.045,21.525 19.965,21.443C19.885,21.361 19.776,21.314 19.662,21.312C19.547,21.311 19.437,21.355 19.344,21.424C19.104,21.597 18.849,21.749 18.583,21.878C18.316,22.008 18.04,22.115 17.755,22.198C17.471,22.281 17.18,22.34 16.886,22.374C16.592,22.408 16.296,22.416 16,22.4C15.705,22.414 15.409,22.402 15.116,22.365C14.822,22.328 14.533,22.267 14.25,22.181C13.967,22.095 13.692,21.986 13.428,21.854C13.163,21.722 12.91,21.567 12.672,21.392C12.589,21.324 12.484,21.29 12.377,21.295C12.27,21.3 12.168,21.345 12.092,21.421C12.017,21.497 11.972,21.598 11.966,21.705C11.961,21.812 11.996,21.918 12.064,22C12.345,22.212 12.644,22.4 12.957,22.56C13.27,22.721 13.597,22.854 13.933,22.959C14.269,23.064 14.614,23.14 14.963,23.186C15.312,23.231 15.664,23.247 16.016,23.232C16.368,23.247 16.72,23.231 17.069,23.186C17.769,23.094 18.447,22.882 19.075,22.56C19.388,22.4 19.687,22.212 19.968,22L19.958,22.054ZM19.664,19.328C19.881,19.331 20.096,19.289 20.297,19.205C20.497,19.122 20.678,18.999 20.829,18.843C20.981,18.687 21.098,18.503 21.176,18.3C21.253,18.097 21.289,17.881 21.28,17.664C21.28,17.017 20.89,16.434 20.293,16.186C19.695,15.938 19.007,16.075 18.549,16.533C18.091,16.991 17.954,17.679 18.202,18.277C18.45,18.874 19.033,19.264 19.68,19.264L19.664,19.328Z" fill="#1B6392"/>
</svg>
