<svg width="48" height="48" viewBox="0 0 48 48" fill="none" xmlns="http://www.w3.org/2000/svg" xmlns:xlink="http://www.w3.org/1999/xlink">
<path d="M40.5,25.144L39.171,25.839C39.549,26.563 40.437,26.851 41.169,26.487L40.5,25.144ZM34.5,13.669L33.829,12.328C33.469,12.508 33.197,12.825 33.073,13.208C32.949,13.591 32.984,14.008 33.171,14.364L34.5,13.669ZM39.188,11.326L39.858,12.667L39.869,12.662L39.188,11.326ZM41.175,11.963L39.844,12.654L39.845,12.658L41.175,11.963ZM45.788,20.794L44.458,21.489L44.462,21.496L45.788,20.794ZM44.463,21.495L39.831,23.802L41.169,26.487L45.8,24.181L44.463,21.495ZM41.829,24.449L35.829,12.974L33.171,14.364L39.171,25.839L41.829,24.449ZM35.171,15.011L39.858,12.667L38.517,9.984L33.829,12.328L35.171,15.011ZM39.869,12.662C39.864,12.664 39.859,12.665 39.854,12.663L40.771,9.807C40.021,9.566 39.207,9.632 38.506,9.989L39.869,12.662ZM39.854,12.663C39.85,12.662 39.846,12.658 39.844,12.654L42.506,11.272C42.144,10.574 41.52,10.047 40.771,9.807L39.854,12.663ZM39.845,12.658L44.458,21.489L47.117,20.1L42.505,11.269L39.845,12.658ZM44.462,21.496L44.462,21.496L47.45,21.232C47.415,20.834 47.3,20.446 47.113,20.093L44.462,21.496ZM44.462,21.496L44.462,21.496L47.318,22.413C47.44,22.032 47.485,21.631 47.45,21.232L44.462,21.496ZM44.462,21.496L44.462,21.496L46.738,23.45C46.998,23.146 47.196,22.794 47.318,22.413L44.462,21.496ZM44.462,21.496L44.462,21.496L45.801,24.18C46.159,24.002 46.477,23.753 46.738,23.45L44.462,21.496Z" fill="#FA8232"/>
<path d="M7.5,24.956L6.827,26.296C7.559,26.664 8.451,26.376 8.83,25.65L7.5,24.956ZM2.869,22.631L3.542,21.29L3.529,21.284L2.869,22.631ZM2.213,20.606L3.537,21.309L3.542,21.3L2.213,20.606ZM6.825,11.774L8.155,12.469L8.156,12.467L6.825,11.774ZM8.813,11.118L9.484,9.777L9.469,9.77L8.813,11.118ZM13.5,13.462L14.83,14.156C15.016,13.799 15.051,13.383 14.927,13C14.803,12.617 14.531,12.3 14.171,12.12L13.5,13.462ZM8.173,23.615L3.542,21.29L2.196,23.971L6.827,26.296L8.173,23.615ZM3.529,21.284C3.531,21.285 3.533,21.286 3.535,21.288L1.268,23.254C1.53,23.556 1.85,23.802 2.209,23.978L3.529,21.284ZM3.535,21.288C3.537,21.29 3.538,21.292 3.539,21.295L0.685,22.22C0.808,22.6 1.006,22.952 1.268,23.254L3.535,21.288ZM3.539,21.295C3.539,21.297 3.54,21.3 3.539,21.302L0.551,21.04C0.516,21.438 0.562,21.84 0.685,22.22L3.539,21.295ZM3.539,21.302C3.539,21.305 3.539,21.307 3.537,21.309L0.888,19.902C0.7,20.255 0.586,20.642 0.551,21.04L3.539,21.302ZM3.542,21.3L8.155,12.469L5.496,11.08L0.883,19.911L3.542,21.3ZM8.156,12.467L8.156,12.467L7.215,9.618C6.473,9.863 5.855,10.389 5.494,11.082L8.156,12.467ZM8.156,12.467L8.156,12.467L9.469,9.77C8.767,9.427 7.958,9.373 7.215,9.618L8.156,12.467ZM8.142,12.46L12.829,14.804L14.171,12.12L9.483,9.777L8.142,12.46ZM12.17,12.768L6.17,24.262L8.83,25.65L14.83,14.156L12.17,12.768Z" fill="#FA8232"/>
<path d="M41.642,26.117C42.179,25.486 42.103,24.539 41.472,24.002C40.841,23.465 39.895,23.541 39.358,24.172L41.642,26.117ZM37.5,28.67L38.561,29.73C38.589,29.702 38.616,29.672 38.642,29.642L37.5,28.67ZM30.6,35.57L31.625,36.665C31.637,36.654 31.649,36.642 31.661,36.63L30.6,35.57ZM29.175,35.963L28.811,37.418C28.827,37.422 28.843,37.426 28.858,37.429L29.175,35.963ZM18.3,33.245L17.897,34.689C17.91,34.693 17.923,34.696 17.936,34.7L18.3,33.245ZM17.756,32.963L18.703,31.8C18.695,31.793 18.687,31.787 18.679,31.781L17.756,32.963ZM8.423,23.775C7.77,23.265 6.827,23.381 6.318,24.034C5.808,24.687 5.924,25.63 6.577,26.139L8.423,23.775ZM39.358,24.172L36.358,27.697L38.642,29.642L41.642,26.117L39.358,24.172ZM36.439,27.609L29.539,34.509L31.661,36.63L38.561,29.73L36.439,27.609ZM29.575,34.474C29.564,34.484 29.551,34.492 29.536,34.496L30.335,37.387C30.817,37.254 31.259,37.006 31.625,36.665L29.575,34.474ZM29.536,34.496C29.522,34.5 29.506,34.5 29.492,34.497L28.858,37.429C29.347,37.535 29.854,37.521 30.335,37.387L29.536,34.496ZM29.539,34.508L18.664,31.789L17.936,34.7L28.811,37.418L29.539,34.508ZM18.703,31.8L18.703,31.8L16.81,34.127C17.13,34.387 17.5,34.579 17.897,34.689L18.703,31.8ZM18.679,31.781L8.423,23.775L6.577,26.139L16.833,34.146L18.679,31.781Z" fill="#FA8232"/>
<path d="M36.618,29.881C37.288,30.368 38.226,30.22 38.713,29.55C39.2,28.88 39.052,27.942 38.382,27.455L36.618,29.881ZM29.25,22.668L30.132,21.455C29.6,21.068 28.877,21.073 28.35,21.468L29.25,22.668ZM26.85,24.468L27.747,25.67L27.75,25.668L26.85,24.468ZM19.65,24.468L18.743,25.663L18.753,25.67L19.65,24.468ZM18.638,23.699L17.73,24.893L17.731,24.894L18.638,23.699ZM18.469,21.43L17.41,20.368L17.394,20.384L18.469,21.43ZM25.819,14.099L24.761,13.036L24.76,13.037L25.819,14.099ZM26.869,13.668L26.864,15.168L26.869,15.168L26.869,13.668ZM34.5,15.168C35.329,15.168 36,14.496 36,13.668C36,12.84 35.329,12.168 34.5,12.168L34.5,15.168ZM38.382,27.455L30.132,21.455L28.368,23.881L36.618,29.881L38.382,27.455ZM28.35,21.468L25.95,23.268L27.75,25.668L30.15,23.868L28.35,21.468ZM25.953,23.266C25.172,23.849 24.224,24.163 23.25,24.163L23.25,27.163C24.871,27.163 26.448,26.64 27.747,25.67L25.953,23.266ZM23.25,24.163C22.276,24.163 21.328,23.849 20.547,23.266L18.753,25.67C20.052,26.64 21.629,27.163 23.25,27.163L23.25,24.163ZM20.557,23.273L19.545,22.505L17.731,24.894L18.743,25.663L20.557,23.273ZM19.545,22.505C19.543,22.504 19.542,22.501 19.54,22.499L16.904,23.931C17.108,24.307 17.39,24.635 17.73,24.893L19.545,22.505ZM19.54,22.499C19.539,22.497 19.538,22.494 19.538,22.492L16.546,22.714C16.578,23.14 16.7,23.555 16.904,23.931L19.54,22.499ZM19.538,22.492C19.538,22.489 19.538,22.486 19.539,22.484L16.72,21.458C16.574,21.86 16.515,22.288 16.546,22.714L19.538,22.492ZM19.539,22.484C19.54,22.481 19.542,22.479 19.543,22.477L17.394,20.384C17.096,20.69 16.866,21.056 16.72,21.458L19.539,22.484ZM19.528,22.492L26.878,15.161L24.76,13.037L17.41,20.368L19.528,22.492ZM26.877,15.163C26.875,15.164 26.873,15.166 26.871,15.167L25.731,12.392C25.368,12.54 25.039,12.759 24.761,13.036L26.877,15.163ZM26.871,15.167C26.869,15.168 26.866,15.168 26.864,15.168L26.874,12.168C26.482,12.167 26.094,12.243 25.731,12.392L26.871,15.167ZM26.869,15.168L34.5,15.168L34.5,12.168L26.869,12.168L26.869,15.168Z" fill="#FA8232"/>
<path d="M13.191,12.023C12.396,12.255 11.94,13.088 12.173,13.883C12.405,14.679 13.238,15.135 14.033,14.902L13.191,12.023ZM23.231,10.65L22.818,9.208L22.81,9.21L23.231,10.65ZM24.262,10.725L24.882,9.359L24.88,9.358L24.262,10.725ZM30.13,15.035C30.884,15.377 31.773,15.043 32.116,14.288C32.458,13.534 32.124,12.645 31.37,12.303L30.13,15.035ZM14.033,14.902L23.652,12.09L22.81,9.21L13.191,12.023L14.033,14.902ZM23.645,12.092L23.645,12.092L24.88,9.358C24.232,9.065 23.501,9.012 22.818,9.208L23.645,12.092ZM23.642,12.091L30.13,15.035L31.37,12.303L24.882,9.359L23.642,12.091Z" fill="#FA8232"/>
<path d="M20.633,41.373C21.436,41.576 22.252,41.089 22.454,40.286C22.657,39.483 22.17,38.667 21.367,38.464L20.633,41.373ZM15.356,38.494L15.723,37.039C15.711,37.036 15.699,37.033 15.687,37.031L15.356,38.494ZM14.738,38.175L15.737,37.056L15.72,37.042L14.738,38.175ZM11.483,33.367C10.857,32.824 9.91,32.891 9.367,33.517C8.824,34.143 8.891,35.09 9.517,35.633L11.483,33.367ZM21.367,38.464L15.723,37.039L14.989,39.948L20.633,41.373L21.367,38.464ZM15.687,37.031C15.705,37.035 15.723,37.044 15.737,37.056L13.738,39.294C14.104,39.62 14.547,39.849 15.026,39.957L15.687,37.031ZM15.72,37.042L11.483,33.367L9.517,35.633L13.755,39.308L15.72,37.042Z" fill="#FA8232"/>
</svg>
