<svg width="64" height="64" viewBox="0 0 64 64" fill="none" xmlns="http://www.w3.org/2000/svg" xmlns:xlink="http://www.w3.org/1999/xlink">
<line x1="30" y1="6" x2="30" y2="58" stroke="#FA8232" stroke-width="2" stroke-miterlimit="3.999327" stroke-linecap="round" stroke-linejoin="round"/>
<path d="M44,22C44,23.105 44.895,24 46,24C47.105,24 48,23.105 48,22L44,22ZM36,12L36,10L36,12ZM17,22L15,22L17,22ZM18,42C18,40.895 17.105,40 16,40C14.895,40 14,40.895 14,42L18,42ZM48,22C48,20.424 47.69,18.864 47.087,17.408L43.391,18.939C43.793,19.909 44,20.949 44,22L48,22ZM47.087,17.408C46.483,15.952 45.6,14.629 44.485,13.515L41.657,16.343C42.4,17.086 42.989,17.968 43.391,18.939L47.087,17.408ZM44.485,13.515C43.371,12.4 42.048,11.517 40.592,10.913L39.061,14.609C40.032,15.011 40.914,15.6 41.657,16.343L44.485,13.515ZM40.592,10.913C39.136,10.31 37.576,10 36,10L36,14C37.051,14 38.091,14.207 39.061,14.609L40.592,10.913ZM36,10L27,10L27,14L36,14L36,10ZM27,10C23.817,10 20.765,11.264 18.515,13.515L21.343,16.343C22.843,14.843 24.878,14 27,14L27,10ZM18.515,13.515C16.264,15.765 15,18.817 15,22L19,22C19,19.878 19.843,17.843 21.343,16.343L18.515,13.515ZM15,22C15,25.183 16.264,28.235 18.515,30.485L21.343,27.657C19.843,26.157 19,24.122 19,22L15,22ZM18.515,30.485C20.765,32.736 23.817,34 27,34L27,30C24.878,30 22.843,29.157 21.343,27.657L18.515,30.485ZM27,34L38,34L38,30L27,30L27,34ZM38,34C40.122,34 42.157,34.843 43.657,36.343L46.485,33.515C44.235,31.264 41.183,30 38,30L38,34ZM43.657,36.343C45.157,37.843 46,39.878 46,42L50,42C50,38.817 48.736,35.765 46.485,33.515L43.657,36.343ZM46,42C46,44.122 45.157,46.157 43.657,47.657L46.485,50.485C48.736,48.235 50,45.183 50,42L46,42ZM43.657,47.657C42.157,49.157 40.122,50 38,50L38,54C41.183,54 44.235,52.736 46.485,50.485L43.657,47.657ZM38,50L26,50L26,54L38,54L38,50ZM26,50C23.878,50 21.843,49.157 20.343,47.657L17.515,50.485C19.765,52.736 22.817,54 26,54L26,50ZM20.343,47.657C18.843,46.157 18,44.122 18,42L14,42C14,45.183 15.264,48.235 17.515,50.485L20.343,47.657Z" fill="#FA8232"/>
</svg>
