<svg width="48" height="48" viewBox="0 0 48 48" fill="none" xmlns="http://www.w3.org/2000/svg" xmlns:xlink="http://www.w3.org/1999/xlink">
<line x1="10.5" y1="42" x2="37.5" y2="42" fill="#5F6C72" stroke="#5F6C72" stroke-width="1.5" stroke-miterlimit="3.999327" stroke-linecap="round" stroke-linejoin="round"/>
<path d="M24,43.5L23.14,44.729C23.656,45.09 24.344,45.09 24.86,44.729L24,43.5ZM24,4.5L24,3L24,4.5ZM37.5,19.5C37.5,25.71 34.032,31.364 30.368,35.578C28.554,37.664 26.737,39.346 25.372,40.506C24.691,41.085 24.126,41.531 23.734,41.831C23.538,41.98 23.386,42.093 23.284,42.167C23.233,42.204 23.195,42.232 23.171,42.249C23.159,42.258 23.15,42.264 23.145,42.268C23.142,42.269 23.14,42.271 23.14,42.271C23.139,42.272 23.139,42.272 23.139,42.272C23.139,42.272 23.139,42.272 23.139,42.272C23.14,42.271 23.14,42.271 24,43.5C24.86,44.729 24.861,44.729 24.861,44.728C24.861,44.728 24.862,44.728 24.862,44.727C24.863,44.727 24.864,44.726 24.866,44.725C24.869,44.723 24.872,44.72 24.877,44.717C24.886,44.711 24.899,44.702 24.915,44.69C24.947,44.667 24.994,44.633 25.053,44.59C25.171,44.504 25.341,44.378 25.555,44.214C25.984,43.887 26.59,43.408 27.315,42.791C28.763,41.561 30.696,39.773 32.632,37.547C36.468,33.136 40.5,26.79 40.5,19.5L37.5,19.5ZM24,43.5C24.86,42.271 24.86,42.271 24.861,42.272C24.861,42.272 24.861,42.272 24.861,42.272C24.861,42.272 24.861,42.272 24.86,42.271C24.86,42.271 24.858,42.269 24.855,42.268C24.85,42.264 24.841,42.258 24.829,42.249C24.805,42.232 24.767,42.204 24.716,42.167C24.614,42.093 24.462,41.98 24.266,41.831C23.874,41.531 23.309,41.085 22.628,40.506C21.263,39.346 19.446,37.664 17.632,35.578C13.968,31.364 10.5,25.71 10.5,19.5L7.5,19.5C7.5,26.79 11.532,33.136 15.368,37.547C17.304,39.773 19.237,41.561 20.685,42.791C21.41,43.408 22.016,43.887 22.445,44.214C22.659,44.378 22.829,44.504 22.947,44.59C23.006,44.633 23.053,44.667 23.085,44.69C23.101,44.702 23.114,44.711 23.123,44.717C23.128,44.72 23.131,44.723 23.134,44.725C23.136,44.726 23.137,44.727 23.138,44.727C23.138,44.728 23.139,44.728 23.139,44.728C23.139,44.729 23.14,44.729 24,43.5ZM10.5,19.5C10.5,15.92 11.922,12.486 14.454,9.954L12.333,7.833C9.238,10.927 7.5,15.124 7.5,19.5L10.5,19.5ZM14.454,9.954C16.986,7.422 20.42,6 24,6L24,3C19.624,3 15.427,4.738 12.333,7.833L14.454,9.954ZM24,6C27.58,6 31.014,7.422 33.546,9.954L35.667,7.833C32.573,4.738 28.376,3 24,3L24,6ZM33.546,9.954C36.078,12.486 37.5,15.92 37.5,19.5L40.5,19.5C40.5,15.124 38.762,10.927 35.667,7.833L33.546,9.954Z" fill="#5F6C72"/>
<path d="M28.5,19.5C28.5,21.985 26.485,24 24,24L24,27C28.142,27 31.5,23.642 31.5,19.5L28.5,19.5ZM24,24C21.515,24 19.5,21.985 19.5,19.5L16.5,19.5C16.5,23.642 19.858,27 24,27L24,24ZM19.5,19.5C19.5,17.015 21.515,15 24,15L24,12C19.858,12 16.5,15.358 16.5,19.5L19.5,19.5ZM24,15C26.485,15 28.5,17.015 28.5,19.5L31.5,19.5C31.5,15.358 28.142,12 24,12L24,15Z" fill="#5F6C72"/>
</svg>
