<svg width="48" height="48" viewBox="0 0 48 48" fill="none" xmlns="http://www.w3.org/2000/svg" xmlns:xlink="http://www.w3.org/1999/xlink">
<path d="M31.5,30C30.672,30 30,30.672 30,31.5C30,32.328 30.672,33 31.5,33L31.5,30ZM40.5,31.5L40.5,33C41.328,33 42,32.328 42,31.5L40.5,31.5ZM40.5,7.5L42,7.5C42,6.672 41.328,6 40.5,6L40.5,7.5ZM16.5,7.5L16.5,6C15.672,6 15,6.672 15,7.5L16.5,7.5ZM15,16.5C15,17.328 15.672,18 16.5,18C17.328,18 18,17.328 18,16.5L15,16.5ZM31.5,33L40.5,33L40.5,30L31.5,30L31.5,33ZM42,31.5L42,7.5L39,7.5L39,31.5L42,31.5ZM40.5,6L16.5,6L16.5,9L40.5,9L40.5,6ZM15,7.5L15,16.5L18,16.5L18,7.5L15,7.5Z" fill="#5F6C72"/>
<path d="M7.5,16.5L7.5,15C6.672,15 6,15.672 6,16.5L7.5,16.5ZM31.5,16.5L33,16.5C33,15.672 32.328,15 31.5,15L31.5,16.5ZM31.5,40.5L31.5,42C32.328,42 33,41.328 33,40.5L31.5,40.5ZM7.5,40.5L6,40.5C6,41.328 6.672,42 7.5,42L7.5,40.5ZM7.5,18L31.5,18L31.5,15L7.5,15L7.5,18ZM30,16.5L30,40.5L33,40.5L33,16.5L30,16.5ZM31.5,39L7.5,39L7.5,42L31.5,42L31.5,39ZM9,40.5L9,16.5L6,16.5L6,40.5L9,40.5Z" fill="#5F6C72"/>
</svg>
