<svg width="48" height="48" viewBox="0 0 48 48" fill="none" xmlns="http://www.w3.org/2000/svg" xmlns:xlink="http://www.w3.org/1999/xlink">
<path d="M37.5,18C37.5,25.456 31.456,31.5 24,31.5L24,34.5C33.113,34.5 40.5,27.113 40.5,18L37.5,18ZM24,31.5C16.544,31.5 10.5,25.456 10.5,18L7.5,18C7.5,27.113 14.887,34.5 24,34.5L24,31.5ZM10.5,18C10.5,10.544 16.544,4.5 24,4.5L24,1.5C14.887,1.5 7.5,8.887 7.5,18L10.5,18ZM24,4.5C31.456,4.5 37.5,10.544 37.5,18L40.5,18C40.5,8.887 33.113,1.5 24,1.5L24,4.5Z" fill="#FA8232"/>
<path d="M31.5,18C31.5,22.142 28.142,25.5 24,25.5L24,28.5C29.799,28.5 34.5,23.799 34.5,18L31.5,18ZM24,25.5C19.858,25.5 16.5,22.142 16.5,18L13.5,18C13.5,23.799 18.201,28.5 24,28.5L24,25.5ZM16.5,18C16.5,13.858 19.858,10.5 24,10.5L24,7.5C18.201,7.5 13.5,12.201 13.5,18L16.5,18ZM24,10.5C28.142,10.5 31.5,13.858 31.5,18L34.5,18C34.5,12.201 29.799,7.5 24,7.5L24,10.5Z" fill="#FA8232"/>
<path d="M34.5,30C34.5,29.172 33.828,28.5 33,28.5C32.172,28.5 31.5,29.172 31.5,30L34.5,30ZM33,45L32.329,46.342C32.794,46.574 33.346,46.549 33.789,46.276C34.231,46.003 34.5,45.52 34.5,45L33,45ZM24,40.5L24.671,39.158C24.249,38.947 23.751,38.947 23.329,39.158L24,40.5ZM15,45L13.5,45C13.5,45.52 13.769,46.003 14.211,46.276C14.654,46.549 15.206,46.574 15.671,46.342L15,45ZM16.5,30C16.5,29.172 15.828,28.5 15,28.5C14.172,28.5 13.5,29.172 13.5,30L16.5,30ZM31.5,30L31.5,45L34.5,45L34.5,30L31.5,30ZM33.671,43.658L24.671,39.158L23.329,41.842L32.329,46.342L33.671,43.658ZM23.329,39.158L14.329,43.658L15.671,46.342L24.671,41.842L23.329,39.158ZM16.5,45L16.5,30L13.5,30L13.5,45L16.5,45Z" fill="#FA8232"/>
</svg>
