<svg width="56" height="56" viewBox="0 0 56 56" fill="none" xmlns="http://www.w3.org/2000/svg" xmlns:xlink="http://www.w3.org/1999/xlink">
<path d="M35.257,7.301C34.457,7.087 33.635,7.561 33.42,8.361C33.205,9.161 33.68,9.984 34.48,10.199L35.257,7.301ZM45.801,21.52C46.016,22.32 46.839,22.795 47.639,22.58C48.439,22.365 48.913,21.543 48.699,20.742L45.801,21.52ZM34.48,10.199C37.194,10.927 39.669,12.357 41.656,14.344L43.777,12.223C41.418,9.863 38.48,8.166 35.257,7.301L34.48,10.199ZM41.656,14.344C43.643,16.331 45.073,18.806 45.801,21.52L48.699,20.742C47.834,17.52 46.137,14.582 43.777,12.223L41.656,14.344Z" fill="#191C1F"/>
<path d="M33.438,14.06C32.638,13.847 31.816,14.324 31.603,15.125C31.391,15.925 31.868,16.747 32.668,16.96L33.438,14.06ZM39.041,23.332C39.254,24.133 40.075,24.61 40.876,24.397C41.676,24.184 42.153,23.363 41.94,22.562L39.041,23.332ZM32.668,16.96C34.198,17.366 35.593,18.169 36.712,19.288L38.833,17.167C37.34,15.674 35.479,14.602 33.438,14.06L32.668,16.96ZM36.712,19.288C37.831,20.407 38.635,21.803 39.041,23.332L41.94,22.562C41.398,20.521 40.327,18.66 38.833,17.167L36.712,19.288Z" fill="#191C1F"/>
<path d="M28.766,35.81L28.115,37.162L28.124,37.166L28.766,35.81ZM30.494,35.679L29.661,34.432L29.654,34.436L30.494,35.679ZM35.962,32.026L36.796,33.273L36.804,33.267L35.962,32.026ZM37.625,31.873L37.024,33.247L37.033,33.251L37.625,31.873ZM47.862,36.27L47.271,37.648L47.286,37.654L47.862,36.27ZM48.912,38.085L47.425,37.894L47.425,37.895L48.912,38.085ZM38.5,47.251L38.5,48.751L38.5,48.751L38.5,47.251ZM8.75,17.501L7.25,17.5L7.25,17.501L8.75,17.501ZM17.916,7.088L18.106,8.576L18.107,8.576L17.916,7.088ZM19.731,8.138L18.346,8.715L18.353,8.729L19.731,8.138ZM24.128,18.398L22.749,18.989L22.752,18.995L24.128,18.398ZM23.997,20.038L25.25,20.862L25.26,20.847L23.997,20.038ZM20.344,25.595L19.09,24.77L19.084,24.78L20.344,25.595ZM20.234,27.301L18.881,27.948L18.884,27.955L20.234,27.301ZM18.884,27.955C20.833,31.978 24.087,35.224 28.115,37.162L29.416,34.458C25.998,32.814 23.238,30.061 21.584,26.647L18.884,27.955ZM28.124,37.166C28.634,37.407 29.198,37.512 29.761,37.469L29.533,34.478C29.49,34.481 29.447,34.473 29.408,34.454L28.124,37.166ZM29.761,37.469C30.323,37.426 30.865,37.238 31.333,36.922L29.654,34.436C29.618,34.46 29.577,34.475 29.533,34.478L29.761,37.469ZM31.327,36.926L36.796,33.273L35.129,30.778L29.661,34.432L31.327,36.926ZM36.804,33.267C36.836,33.246 36.873,33.232 36.912,33.229L36.636,30.241C36.093,30.291 35.572,30.478 35.121,30.784L36.804,33.267ZM36.912,33.229C36.95,33.225 36.989,33.232 37.024,33.247L38.226,30.498C37.726,30.28 37.18,30.191 36.636,30.241L36.912,33.229ZM37.033,33.251L47.271,37.648L48.454,34.891L38.217,30.494L37.033,33.251ZM47.286,37.654C47.332,37.674 47.371,37.707 47.396,37.751L49.993,36.249C49.639,35.636 49.092,35.157 48.439,34.885L47.286,37.654ZM47.396,37.751C47.421,37.794 47.431,37.844 47.425,37.894L50.4,38.276C50.49,37.574 50.347,36.862 49.993,36.249L47.396,37.751ZM47.425,37.895C47.147,40.065 46.087,42.06 44.444,43.506L46.426,45.758C48.617,43.83 50.03,41.17 50.4,38.276L47.425,37.895ZM44.444,43.506C42.802,44.952 40.688,45.75 38.5,45.751L38.5,48.751C41.418,48.75 44.236,47.686 46.426,45.758L44.444,43.506ZM38.5,45.751C31.008,45.751 23.822,42.774 18.524,37.477L16.403,39.598C22.263,45.458 30.212,48.751 38.5,48.751L38.5,45.751ZM18.524,37.477C13.226,32.179 10.25,24.993 10.25,17.501L7.25,17.501C7.25,25.789 10.542,33.737 16.403,39.598L18.524,37.477ZM10.25,17.501C10.25,15.313 11.048,13.199 12.494,11.557L10.243,9.574C8.315,11.765 7.251,14.582 7.25,17.5L10.25,17.501ZM12.494,11.557C13.94,9.914 15.935,8.854 18.106,8.576L17.725,5.6C14.831,5.971 12.171,7.384 10.243,9.574L12.494,11.557ZM18.107,8.576C18.156,8.57 18.207,8.58 18.25,8.605L19.752,6.008C19.139,5.653 18.427,5.51 17.725,5.601L18.107,8.576ZM18.25,8.605C18.293,8.63 18.327,8.668 18.346,8.715L21.116,7.562C20.844,6.908 20.365,6.362 19.752,6.008L18.25,8.605ZM18.353,8.729L22.749,18.989L25.507,17.807L21.11,7.547L18.353,8.729ZM22.752,18.995C22.769,19.033 22.775,19.074 22.772,19.115L25.763,19.354C25.805,18.823 25.716,18.289 25.504,17.8L22.752,18.995ZM22.772,19.115C22.769,19.156 22.756,19.195 22.734,19.23L25.26,20.847C25.548,20.398 25.72,19.885 25.763,19.354L22.772,19.115ZM22.743,19.214L19.09,24.77L21.597,26.419L25.25,20.862L22.743,19.214ZM19.084,24.78C18.782,25.246 18.605,25.783 18.57,26.337L21.563,26.529C21.566,26.487 21.58,26.445 21.603,26.41L19.084,24.78ZM18.57,26.337C18.534,26.892 18.641,27.447 18.881,27.948L21.587,26.653C21.569,26.615 21.561,26.572 21.563,26.529L18.57,26.337Z" fill="#191C1F"/>
</svg>
