<svg width="64" height="64" viewBox="0 0 64 64" fill="none" xmlns="http://www.w3.org/2000/svg" xmlns:xlink="http://www.w3.org/1999/xlink">
<path d="M46,24C46,31.732 39.732,38 32,38L32,42C41.941,42 50,33.941 50,24L46,24ZM32,38C24.268,38 18,31.732 18,24L14,24C14,33.941 22.059,42 32,42L32,38ZM18,24C18,16.268 24.268,10 32,10L32,6C22.059,6 14,14.059 14,24L18,24ZM32,10C39.732,10 46,16.268 46,24L50,24C50,14.059 41.941,6 32,6L32,10Z" fill="#FFFFFF"/>
<path d="M6.018,53C5.466,53.957 5.794,55.18 6.75,55.732C7.707,56.285 8.93,55.957 9.482,55L6.018,53ZM54.518,55C55.07,55.957 56.293,56.285 57.25,55.732C58.206,55.18 58.534,53.957 57.982,53L54.518,55ZM9.482,55C11.764,51.047 15.046,47.764 18.999,45.482L16.999,42.018C12.438,44.651 8.651,48.439 6.018,53L9.482,55ZM18.999,45.482C22.952,43.2 27.436,41.998 32,41.998L32,37.998C26.733,37.998 21.56,39.384 16.999,42.018L18.999,45.482ZM32,41.998C36.564,41.998 41.048,43.2 45.001,45.482L47.001,42.018C42.44,39.384 37.267,37.998 32,37.998L32,41.998ZM45.001,45.482C48.954,47.764 52.236,51.047 54.518,55L57.982,53C55.349,48.439 51.562,44.651 47.001,42.018L45.001,45.482Z" fill="#FFFFFF"/>
</svg>
