<svg width="48" height="48" viewBox="0 0 48 48" fill="none" xmlns="http://www.w3.org/2000/svg" xmlns:xlink="http://www.w3.org/1999/xlink">
<line x1="7.5" y1="22.5" x2="40.5" y2="22.5" stroke="#FA8232" stroke-width="1.5" stroke-miterlimit="3.999327" stroke-linecap="round" stroke-linejoin="round"/>
<path d="M22.061,11.561C22.646,10.975 22.646,10.025 22.061,9.439C21.475,8.854 20.525,8.854 19.939,9.439L22.061,11.561ZM7.5,24L6.439,22.939C5.854,23.525 5.854,24.475 6.439,25.061L7.5,24ZM19.939,38.561C20.525,39.146 21.475,39.146 22.061,38.561C22.646,37.975 22.646,37.025 22.061,36.439L19.939,38.561ZM19.939,9.439L6.439,22.939L8.561,25.061L22.061,11.561L19.939,9.439ZM6.439,25.061L19.939,38.561L22.061,36.439L8.561,22.939L6.439,25.061Z" fill="#FA8232"/>
</svg>
