<svg width="40" height="40" viewBox="0 0 40 40" fill="none" xmlns="http://www.w3.org/2000/svg" xmlns:xlink="http://www.w3.org/1999/xlink">
<path d="M29.75,18.125C29.75,24.545 24.545,29.75 18.125,29.75L18.125,32.75C26.202,32.75 32.75,26.202 32.75,18.125L29.75,18.125ZM18.125,29.75C11.705,29.75 6.5,24.545 6.5,18.125L3.5,18.125C3.5,26.202 10.048,32.75 18.125,32.75L18.125,29.75ZM6.5,18.125C6.5,11.705 11.705,6.5 18.125,6.5L18.125,3.5C10.048,3.5 3.5,10.048 3.5,18.125L6.5,18.125ZM18.125,6.5C24.545,6.5 29.75,11.705 29.75,18.125L32.75,18.125C32.75,10.048 26.202,3.5 18.125,3.5L18.125,6.5Z" fill="#191C1F"/>
<path d="M28.467,26.346C27.881,25.76 26.931,25.76 26.346,26.346C25.76,26.931 25.76,27.881 26.346,28.467L28.467,26.346ZM33.939,36.061C34.525,36.646 35.475,36.646 36.061,36.061C36.646,35.475 36.646,34.525 36.061,33.939L33.939,36.061ZM26.346,28.467L33.939,36.061L36.061,33.939L28.467,26.346L26.346,28.467Z" fill="#191C1F"/>
</svg>
