<svg width="40" height="40" viewBox="0 0 40 40" fill="none" xmlns="http://www.w3.org/2000/svg" xmlns:xlink="http://www.w3.org/1999/xlink">
<line x1="6.25" y1="18.5" x2="33.75" y2="18.5" stroke="#EBC80C" stroke-width="1.5" stroke-miterlimit="3.999327" stroke-linecap="round" stroke-linejoin="round"/>
<path d="M23.561,7.689C22.975,7.104 22.025,7.104 21.439,7.689C20.854,8.275 20.854,9.225 21.439,9.811L23.561,7.689ZM33.75,20L34.811,21.061C35.396,20.475 35.396,19.525 34.811,18.939L33.75,20ZM21.439,30.189C20.854,30.775 20.854,31.725 21.439,32.311C22.025,32.896 22.975,32.896 23.561,32.311L21.439,30.189ZM21.439,9.811L32.689,21.061L34.811,18.939L23.561,7.689L21.439,9.811ZM32.689,18.939L21.439,30.189L23.561,32.311L34.811,21.061L32.689,18.939Z" fill="#EBC80C"/>
</svg>
