<svg width="48" height="48" viewBox="0 0 48 48" fill="none" xmlns="http://www.w3.org/2000/svg" xmlns:xlink="http://www.w3.org/1999/xlink">
<path d="M40.5,24C40.5,33.113 33.113,40.5 24,40.5L24,43.5C34.77,43.5 43.5,34.77 43.5,24L40.5,24ZM24,40.5C14.887,40.5 7.5,33.113 7.5,24L4.5,24C4.5,34.77 13.23,43.5 24,43.5L24,40.5ZM7.5,24C7.5,14.887 14.887,7.5 24,7.5L24,4.5C13.23,4.5 4.5,13.23 4.5,24L7.5,24ZM24,7.5C33.113,7.5 40.5,14.887 40.5,24L43.5,24C43.5,13.23 34.77,4.5 24,4.5L24,7.5Z" fill="#5F6C72"/>
<path d="M22.5,21C21.672,21 21,21.672 21,22.5C21,23.328 21.672,24 22.5,24L22.5,21ZM24,22.5L25.5,22.5C25.5,21.672 24.828,21 24,21L24,22.5ZM24,33L22.5,33C22.5,33.828 23.172,34.5 24,34.5L24,33ZM25.5,34.5C26.328,34.5 27,33.828 27,33C27,32.172 26.328,31.5 25.5,31.5L25.5,34.5ZM22.5,24L24,24L24,21L22.5,21L22.5,24ZM22.5,22.5L22.5,33L25.5,33L25.5,22.5L22.5,22.5ZM24,34.5L25.5,34.5L25.5,31.5L24,31.5L24,34.5Z" fill="#5F6C72"/>
<path d="M23.625,18C24.868,18 25.875,16.993 25.875,15.75C25.875,14.507 24.868,13.5 23.625,13.5C22.382,13.5 21.375,14.507 21.375,15.75C21.375,16.993 22.382,18 23.625,18Z" fill="#191C1F" stroke="#5F6C72" stroke-width="1.5" stroke-miterlimit="3.999327"/>
</svg>
