<svg width="48" height="48" viewBox="0 0 48 48" fill="none" xmlns="http://www.w3.org/2000/svg" xmlns:xlink="http://www.w3.org/1999/xlink">
<line x1="6.5" y1="22.5" x2="39.5" y2="22.5" stroke="#FFFFFF" stroke-width="1.5" stroke-miterlimit="3.999327" stroke-linecap="round" stroke-linejoin="round"/>
<path d="M27.061,9.439C26.475,8.854 25.525,8.854 24.939,9.439C24.354,10.025 24.354,10.975 24.939,11.561L27.061,9.439ZM39.5,24L40.561,25.061C41.146,24.475 41.146,23.525 40.561,22.939L39.5,24ZM24.939,36.439C24.354,37.025 24.354,37.975 24.939,38.561C25.525,39.146 26.475,39.146 27.061,38.561L24.939,36.439ZM24.939,11.561L38.439,25.061L40.561,22.939L27.061,9.439L24.939,11.561ZM38.439,22.939L24.939,36.439L27.061,38.561L40.561,25.061L38.439,22.939Z" fill="#FFFFFF"/>
</svg>
