<svg width="40" height="40" viewBox="0 0 40 40" fill="none" xmlns="http://www.w3.org/2000/svg" xmlns:xlink="http://www.w3.org/1999/xlink">
<line x1="5.25" y1="18.2" x2="32.75" y2="18.2" stroke="#FA8232" stroke-width="1.8" stroke-miterlimit="3.999327" stroke-linecap="round" stroke-linejoin="round"/>
<path d="M22.773,7.477C22.07,6.774 20.93,6.774 20.227,7.477C19.524,8.18 19.524,9.32 20.227,10.023L22.773,7.477ZM32.75,20L34.023,21.273C34.726,20.57 34.726,19.43 34.023,18.727L32.75,20ZM20.227,29.977C19.524,30.68 19.524,31.82 20.227,32.523C20.93,33.226 22.07,33.226 22.773,32.523L20.227,29.977ZM20.227,10.023L31.477,21.273L34.023,18.727L22.773,7.477L20.227,10.023ZM31.477,18.727L20.227,29.977L22.773,32.523L34.023,21.273L31.477,18.727Z" fill="#FA8232"/>
</svg>
