<svg width="40" height="40" viewBox="0 0 40 40" fill="none" xmlns="http://www.w3.org/2000/svg" xmlns:xlink="http://www.w3.org/1999/xlink">
<path d="M28.75,18.125C28.75,24.545 23.545,29.75 17.125,29.75L17.125,32.75C25.202,32.75 31.75,26.202 31.75,18.125L28.75,18.125ZM17.125,29.75C10.705,29.75 5.5,24.545 5.5,18.125L2.5,18.125C2.5,26.202 9.048,32.75 17.125,32.75L17.125,29.75ZM5.5,18.125C5.5,11.705 10.705,6.5 17.125,6.5L17.125,3.5C9.048,3.5 2.5,10.048 2.5,18.125L5.5,18.125ZM17.125,6.5C23.545,6.5 28.75,11.705 28.75,18.125L31.75,18.125C31.75,10.048 25.202,3.5 17.125,3.5L17.125,6.5Z" fill="#191C1F"/>
<path d="M27.467,26.346C26.881,25.76 25.931,25.76 25.346,26.346C24.76,26.931 24.76,27.881 25.346,28.467L27.467,26.346ZM32.939,36.061C33.525,36.646 34.475,36.646 35.061,36.061C35.646,35.475 35.646,34.525 35.061,33.939L32.939,36.061ZM25.346,28.467L32.939,36.061L35.061,33.939L27.467,26.346L25.346,28.467Z" fill="#191C1F"/>
</svg>
