<svg width="48" height="48" viewBox="0 0 48 48" fill="none" xmlns="http://www.w3.org/2000/svg" xmlns:xlink="http://www.w3.org/1999/xlink">
<path d="M3,24L1.601,23.459C1.466,23.807 1.466,24.193 1.601,24.541L3,24ZM45,24L46.399,24.541C46.534,24.193 46.534,23.807 46.399,23.459L45,24ZM24,7C15.923,7 10.293,11.189 6.744,15.265C4.969,17.303 3.691,19.335 2.857,20.857C2.439,21.619 2.129,22.258 1.922,22.711C1.819,22.938 1.741,23.119 1.688,23.246C1.661,23.309 1.641,23.359 1.626,23.395C1.619,23.413 1.613,23.427 1.609,23.438C1.607,23.443 1.605,23.448 1.604,23.451C1.603,23.453 1.603,23.454 1.602,23.456C1.602,23.456 1.602,23.457 1.602,23.457C1.601,23.458 1.601,23.459 3,24C4.399,24.541 4.399,24.542 4.398,24.542C4.398,24.543 4.398,24.543 4.398,24.543C4.398,24.543 4.398,24.543 4.398,24.543C4.398,24.543 4.399,24.542 4.4,24.54C4.401,24.535 4.404,24.527 4.409,24.516C4.418,24.493 4.433,24.456 4.454,24.406C4.496,24.306 4.562,24.154 4.652,23.957C4.832,23.562 5.108,22.99 5.487,22.299C6.246,20.915 7.406,19.072 9.006,17.235C12.207,13.561 17.077,10 24,10L24,7ZM3,24C1.601,24.541 1.601,24.542 1.602,24.543C1.602,24.543 1.602,24.544 1.602,24.544C1.603,24.546 1.603,24.547 1.604,24.549C1.605,24.552 1.607,24.557 1.609,24.562C1.613,24.573 1.619,24.587 1.626,24.605C1.641,24.641 1.661,24.691 1.688,24.754C1.741,24.881 1.819,25.062 1.922,25.289C2.129,25.742 2.439,26.381 2.857,27.143C3.691,28.665 4.969,30.697 6.744,32.735C10.293,36.811 15.923,41 24,41L24,38C17.077,38 12.207,34.439 9.006,30.765C7.406,28.928 6.246,27.085 5.487,25.701C5.108,25.01 4.832,24.438 4.652,24.043C4.562,23.846 4.496,23.694 4.454,23.594C4.433,23.544 4.418,23.507 4.409,23.484C4.404,23.473 4.401,23.465 4.4,23.46C4.399,23.458 4.398,23.457 4.398,23.457C4.398,23.457 4.398,23.457 4.398,23.457C4.398,23.457 4.398,23.457 4.398,23.458C4.399,23.458 4.399,23.459 3,24ZM24,41C32.077,41 37.707,36.811 41.256,32.735C43.031,30.697 44.309,28.665 45.143,27.143C45.561,26.381 45.871,25.742 46.078,25.289C46.181,25.062 46.259,24.881 46.312,24.754C46.339,24.691 46.359,24.641 46.374,24.605C46.381,24.587 46.387,24.573 46.391,24.562C46.393,24.557 46.395,24.552 46.396,24.549C46.397,24.547 46.397,24.546 46.398,24.544C46.398,24.544 46.398,24.543 46.398,24.543C46.399,24.542 46.399,24.541 45,24C43.601,23.459 43.601,23.458 43.602,23.458C43.602,23.457 43.602,23.457 43.602,23.457C43.602,23.457 43.602,23.457 43.602,23.457C43.602,23.457 43.601,23.458 43.6,23.46C43.599,23.465 43.596,23.473 43.591,23.484C43.582,23.507 43.567,23.544 43.546,23.594C43.504,23.694 43.438,23.846 43.348,24.043C43.168,24.438 42.892,25.01 42.513,25.701C41.754,27.085 40.594,28.928 38.994,30.765C35.793,34.439 30.923,38 24,38L24,41ZM45,24C46.399,23.459 46.399,23.458 46.398,23.457C46.398,23.457 46.398,23.456 46.398,23.456C46.397,23.454 46.397,23.453 46.396,23.451C46.395,23.448 46.393,23.443 46.391,23.438C46.387,23.427 46.381,23.413 46.374,23.395C46.359,23.359 46.339,23.309 46.312,23.246C46.259,23.119 46.181,22.938 46.078,22.711C45.871,22.258 45.561,21.619 45.143,20.857C44.309,19.335 43.031,17.303 41.256,15.265C37.707,11.189 32.077,7 24,7L24,10C30.923,10 35.793,13.561 38.994,17.235C40.594,19.072 41.754,20.915 42.513,22.299C42.892,22.99 43.168,23.562 43.348,23.957C43.438,24.154 43.504,24.306 43.546,24.406C43.567,24.456 43.582,24.493 43.591,24.516C43.596,24.527 43.599,24.535 43.6,24.54C43.601,24.542 43.602,24.543 43.602,24.543C43.602,24.543 43.602,24.543 43.602,24.543C43.602,24.543 43.602,24.543 43.602,24.542C43.601,24.542 43.601,24.541 45,24Z" fill="#FFFFFF"/>
<path d="M28.5,24C28.5,26.485 26.485,28.5 24,28.5L24,31.5C28.142,31.5 31.5,28.142 31.5,24L28.5,24ZM24,28.5C21.515,28.5 19.5,26.485 19.5,24L16.5,24C16.5,28.142 19.858,31.5 24,31.5L24,28.5ZM19.5,24C19.5,21.515 21.515,19.5 24,19.5L24,16.5C19.858,16.5 16.5,19.858 16.5,24L19.5,24ZM24,19.5C26.485,19.5 28.5,21.515 28.5,24L31.5,24C31.5,19.858 28.142,16.5 24,16.5L24,19.5Z" fill="#FFFFFF"/>
</svg>
