<svg width="48" height="48" viewBox="0 0 48 48" fill="none" xmlns="http://www.w3.org/2000/svg" xmlns:xlink="http://www.w3.org/1999/xlink">
<line x1="7.5" y1="22.5" x2="40.5" y2="22.5" stroke="#FA8232" stroke-width="1.5" stroke-miterlimit="3.999327" stroke-linecap="round" stroke-linejoin="round"/>
<path d="M28.061,9.439C27.475,8.854 26.525,8.854 25.939,9.439C25.354,10.025 25.354,10.975 25.939,11.561L28.061,9.439ZM40.5,24L41.561,25.061C42.146,24.475 42.146,23.525 41.561,22.939L40.5,24ZM25.939,36.439C25.354,37.025 25.354,37.975 25.939,38.561C26.525,39.146 27.475,39.146 28.061,38.561L25.939,36.439ZM25.939,11.561L39.439,25.061L41.561,22.939L28.061,9.439L25.939,11.561ZM39.439,22.939L25.939,36.439L28.061,38.561L41.561,25.061L39.439,22.939Z" fill="#FA8232"/>
</svg>
