<svg width="48" height="48" viewBox="0 0 48 48" fill="none" xmlns="http://www.w3.org/2000/svg" xmlns:xlink="http://www.w3.org/1999/xlink">
<path d="M33,13.5C32.172,13.5 31.5,14.172 31.5,15C31.5,15.828 32.172,16.5 33,16.5L33,13.5ZM40.988,15L40.988,16.5L40.997,16.5L40.988,15ZM42.375,15.938L40.98,16.488L40.982,16.495L42.375,15.938ZM43.607,23.057C43.915,23.826 44.788,24.2 45.557,23.893C46.326,23.585 46.7,22.712 46.393,21.943L43.607,23.057ZM33,16.5L40.988,16.5L40.988,13.5L33,13.5L33,16.5ZM40.997,16.5C40.993,16.5 40.99,16.499 40.987,16.497L42.666,14.011C42.168,13.674 41.579,13.496 40.978,13.5L40.997,16.5ZM40.987,16.497C40.984,16.495 40.981,16.492 40.98,16.488L43.77,15.387C43.55,14.827 43.165,14.348 42.666,14.011L40.987,16.497ZM40.982,16.495L43.607,23.057L46.393,21.943L43.768,15.38L40.982,16.495Z" fill="#FA8232"/>
<line x1="3" y1="25.5" x2="33" y2="25.5" stroke="#FA8232" stroke-width="1.5" stroke-miterlimit="3.999327" stroke-linecap="round" stroke-linejoin="round"/>
<path d="M38.25,36C38.25,37.657 36.907,39 35.25,39L35.25,42C38.564,42 41.25,39.314 41.25,36L38.25,36ZM35.25,39C33.593,39 32.25,37.657 32.25,36L29.25,36C29.25,39.314 31.936,42 35.25,42L35.25,39ZM32.25,36C32.25,34.343 33.593,33 35.25,33L35.25,30C31.936,30 29.25,32.686 29.25,36L32.25,36ZM35.25,33C36.907,33 38.25,34.343 38.25,36L41.25,36C41.25,32.686 38.564,30 35.25,30L35.25,33Z" fill="#FA8232"/>
<path d="M15.75,36C15.75,37.657 14.407,39 12.75,39L12.75,42C16.064,42 18.75,39.314 18.75,36L15.75,36ZM12.75,39C11.093,39 9.75,37.657 9.75,36L6.75,36C6.75,39.314 9.436,42 12.75,42L12.75,39ZM9.75,36C9.75,34.343 11.093,33 12.75,33L12.75,30C9.436,30 6.75,32.686 6.75,36L9.75,36ZM12.75,33C14.407,33 15.75,34.343 15.75,36L18.75,36C18.75,32.686 16.064,30 12.75,30L12.75,33Z" fill="#FA8232"/>
<line x1="17.25" y1="34.5" x2="30.75" y2="34.5" stroke="#FA8232" stroke-width="1.5" stroke-miterlimit="3.999327" stroke-linecap="round" stroke-linejoin="round"/>
<path d="M8.25,37.5C9.078,37.5 9.75,36.828 9.75,36C9.75,35.172 9.078,34.5 8.25,34.5L8.25,37.5ZM3,34.5L1.5,34.5L3,34.5ZM4.5,12L4.5,13.5L4.5,12ZM33,12L34.5,12C34.5,11.172 33.828,10.5 33,10.5L33,12ZM31.5,32.1C31.5,32.928 32.172,33.6 33,33.6C33.828,33.6 34.5,32.928 34.5,32.1L31.5,32.1ZM8.25,34.5L4.5,34.5L4.5,37.5L8.25,37.5L8.25,34.5ZM4.5,34.5L4.5,34.5L2.379,36.621C2.941,37.184 3.704,37.5 4.5,37.5L4.5,34.5ZM4.5,34.5L4.5,34.5L1.5,34.5C1.5,35.296 1.816,36.059 2.379,36.621L4.5,34.5ZM4.5,34.5L4.5,13.5L1.5,13.5L1.5,34.5L4.5,34.5ZM4.5,13.5L4.5,13.5L2.379,11.379C1.816,11.941 1.5,12.704 1.5,13.5L4.5,13.5ZM4.5,13.5L4.5,13.5L4.5,10.5C3.704,10.5 2.941,10.816 2.379,11.379L4.5,13.5ZM4.5,13.5L33,13.5L33,10.5L4.5,10.5L4.5,13.5ZM31.5,12L31.5,32.1L34.5,32.1L34.5,12L31.5,12Z" fill="#FA8232"/>
<path d="M33,21C32.172,21 31.5,21.672 31.5,22.5C31.5,23.328 32.172,24 33,24L33,21ZM45,22.5L46.5,22.5C46.5,21.672 45.828,21 45,21L45,22.5ZM39.75,34.5C38.922,34.5 38.25,35.172 38.25,36C38.25,36.828 38.922,37.5 39.75,37.5L39.75,34.5ZM33,24L45,24L45,21L33,21L33,24ZM43.5,22.5L43.5,34.5L46.5,34.5L46.5,22.5L43.5,22.5ZM43.5,34.5L43.5,34.5L45.621,36.621C46.184,36.059 46.5,35.296 46.5,34.5L43.5,34.5ZM43.5,34.5L43.5,34.5L43.5,37.5C44.296,37.5 45.059,37.184 45.621,36.621L43.5,34.5ZM43.5,34.5L39.75,34.5L39.75,37.5L43.5,37.5L43.5,34.5Z" fill="#FA8232"/>
</svg>
