<svg width="40" height="40" viewBox="0 0 40 40" fill="none" xmlns="http://www.w3.org/2000/svg" xmlns:xlink="http://www.w3.org/1999/xlink">
<path d="M12.5,36.25C13.881,36.25 15,35.131 15,33.75C15,32.369 13.881,31.25 12.5,31.25C11.119,31.25 10,32.369 10,33.75C10,35.131 11.119,36.25 12.5,36.25Z" fill="#FFFFFF" stroke="#FFFFFF" stroke-width="1.5" stroke-miterlimit="3.999327"/>
<path d="M28.75,36.25C30.131,36.25 31.25,35.131 31.25,33.75C31.25,32.369 30.131,31.25 28.75,31.25C27.369,31.25 26.25,32.369 26.25,33.75C26.25,35.131 27.369,36.25 28.75,36.25Z" fill="#FFFFFF"/>
<path d="M6.609,9.75C5.781,9.75 5.109,10.422 5.109,11.25C5.109,12.078 5.781,12.75 6.609,12.75L6.609,9.75ZM34.641,11.25L36.083,11.662C36.212,11.21 36.122,10.722 35.838,10.347C35.555,9.971 35.111,9.75 34.641,9.75L34.641,11.25ZM30.516,25.688L29.073,25.275L29.072,25.282L30.516,25.688ZM28.109,27.5L28.118,26L28.109,26L28.109,27.5ZM13.141,27.5L13.141,26L13.132,26L13.141,27.5ZM10.734,25.688L12.178,25.282L12.177,25.275L10.734,25.688ZM5.078,5.906L6.52,5.494L6.52,5.494L5.078,5.906ZM3.875,5L3.875,6.5L3.877,6.5L3.875,5ZM1.25,3.5C0.422,3.5 -0.25,4.172 -0.25,5C-0.25,5.828 0.422,6.5 1.25,6.5L1.25,3.5ZM6.609,12.75L34.641,12.75L34.641,9.75L6.609,9.75L6.609,12.75ZM33.198,10.838L29.073,25.275L31.958,26.1L36.083,11.662L33.198,10.838ZM29.072,25.282C29.013,25.489 28.888,25.672 28.716,25.802L30.521,28.198C31.218,27.673 31.724,26.933 31.96,26.093L29.072,25.282ZM28.716,25.802C28.544,25.932 28.334,26.001 28.118,26L28.101,29C28.973,29.005 29.824,28.723 30.521,28.198L28.716,25.802ZM28.109,26L13.141,26L13.141,29L28.109,29L28.109,26ZM13.132,26C12.916,26.001 12.706,25.932 12.534,25.802L10.729,28.198C11.426,28.723 12.277,29.005 13.149,29L13.132,26ZM12.534,25.802C12.362,25.672 12.237,25.489 12.178,25.282L9.29,26.093C9.526,26.933 10.032,27.673 10.729,28.198L12.534,25.802ZM12.177,25.275L6.52,5.494L3.636,6.319L9.292,26.1L12.177,25.275ZM6.52,5.494C6.356,4.919 6.009,4.413 5.531,4.053L3.726,6.45C3.682,6.417 3.651,6.371 3.636,6.319L6.52,5.494ZM5.531,4.053C5.053,3.694 4.471,3.499 3.873,3.5L3.877,6.5C3.822,6.5 3.769,6.482 3.726,6.45L5.531,4.053ZM3.875,3.5L1.25,3.5L1.25,6.5L3.875,6.5L3.875,3.5Z" fill="#FFFFFF"/>
</svg>
