<svg width="48" height="48" viewBox="0 0 48 48" fill="none" xmlns="http://www.w3.org/2000/svg" xmlns:xlink="http://www.w3.org/1999/xlink">
<path d="M15,43.5C16.657,43.5 18,42.157 18,40.5C18,38.843 16.657,37.5 15,37.5C13.343,37.5 12,38.843 12,40.5C12,42.157 13.343,43.5 15,43.5Z" fill="#191C1F" stroke="#191C1F" stroke-width="1.5" stroke-miterlimit="3.999327"/>
<path d="M34.5,43.5C36.157,43.5 37.5,42.157 37.5,40.5C37.5,38.843 36.157,37.5 34.5,37.5C32.843,37.5 31.5,38.843 31.5,40.5C31.5,42.157 32.843,43.5 34.5,43.5Z" fill="#191C1F"/>
<path d="M7.931,12C7.103,12 6.431,12.672 6.431,13.5C6.431,14.328 7.103,15 7.931,15L7.931,12ZM41.569,13.5L43.011,13.912C43.14,13.46 43.05,12.972 42.766,12.597C42.483,12.221 42.039,12 41.569,12L41.569,13.5ZM36.619,30.825L35.176,30.413L35.175,30.419L36.619,30.825ZM33.731,33L33.74,31.5L33.731,31.5L33.731,33ZM15.769,33L15.769,31.5L15.76,31.5L15.769,33ZM12.881,30.825L14.325,30.419L14.323,30.413L12.881,30.825ZM6.094,7.088L7.536,6.675L7.536,6.675L6.094,7.088ZM4.65,6L4.65,7.5L4.652,7.5L4.65,6ZM1.5,4.5C0.672,4.5 0,5.172 0,6C0,6.828 0.672,7.5 1.5,7.5L1.5,4.5ZM7.931,15L41.569,15L41.569,12L7.931,12L7.931,15ZM40.126,13.088L35.176,30.413L38.061,31.237L43.011,13.912L40.126,13.088ZM35.175,30.419C35.087,30.732 34.899,31.007 34.64,31.202L36.445,33.598C37.229,33.008 37.797,32.176 38.063,31.231L35.175,30.419ZM34.64,31.202C34.381,31.397 34.064,31.502 33.74,31.5L33.723,34.5C34.704,34.506 35.661,34.189 36.445,33.598L34.64,31.202ZM33.731,31.5L15.769,31.5L15.769,34.5L33.731,34.5L33.731,31.5ZM15.76,31.5C15.436,31.502 15.119,31.397 14.86,31.202L13.055,33.598C13.839,34.189 14.796,34.506 15.777,34.5L15.76,31.5ZM14.86,31.202C14.601,31.007 14.413,30.732 14.325,30.419L11.437,31.231C11.703,32.176 12.271,33.008 13.055,33.598L14.86,31.202ZM14.323,30.413L7.536,6.675L4.652,7.5L11.439,31.237L14.323,30.413ZM7.536,6.675C7.357,6.048 6.978,5.496 6.457,5.104L4.652,7.5L4.652,7.5L7.536,6.675ZM6.457,5.104C5.936,4.711 5.301,4.499 4.648,4.5L4.652,7.5L4.652,7.5L6.457,5.104ZM4.65,4.5L1.5,4.5L1.5,7.5L4.65,7.5L4.65,4.5Z" fill="#191C1F"/>
</svg>
