<svg width="48" height="48" viewBox="0 0 48 48" fill="none" xmlns="http://www.w3.org/2000/svg" xmlns:xlink="http://www.w3.org/1999/xlink">
<path d="M14,43.5C15.657,43.5 17,42.157 17,40.5C17,38.843 15.657,37.5 14,37.5C12.343,37.5 11,38.843 11,40.5C11,42.157 12.343,43.5 14,43.5Z" fill="#FFFFFF" stroke="#FFFFFF" stroke-width="1.5" stroke-miterlimit="3.999327"/>
<path d="M33.5,43.5C35.157,43.5 36.5,42.157 36.5,40.5C36.5,38.843 35.157,37.5 33.5,37.5C31.843,37.5 30.5,38.843 30.5,40.5C30.5,42.157 31.843,43.5 33.5,43.5Z" fill="#FFFFFF" stroke="#FFFFFF" stroke-width="1.5" stroke-miterlimit="3.999327"/>
<path d="M6.931,12C6.103,12 5.431,12.672 5.431,13.5C5.431,14.328 6.103,15 6.931,15L6.931,12ZM40.569,13.5L42.011,13.912C42.14,13.46 42.05,12.972 41.766,12.597C41.483,12.221 41.039,12 40.569,12L40.569,13.5ZM35.619,30.825L34.176,30.413L34.175,30.419L35.619,30.825ZM32.731,33L32.74,31.5L32.731,31.5L32.731,33ZM14.769,33L14.769,31.5L14.76,31.5L14.769,33ZM11.881,30.825L13.325,30.419L13.323,30.413L11.881,30.825ZM5.094,7.088L6.536,6.675L6.536,6.675L5.094,7.088ZM3.65,6L3.65,7.5L3.652,7.5L3.65,6ZM0.5,4.5C-0.328,4.5 -1,5.172 -1,6C-1,6.828 -0.328,7.5 0.5,7.5L0.5,4.5ZM6.931,15L40.569,15L40.569,12L6.931,12L6.931,15ZM39.126,13.088L34.176,30.413L37.061,31.237L42.011,13.912L39.126,13.088ZM34.175,30.419C34.087,30.732 33.899,31.007 33.64,31.202L35.445,33.598C36.229,33.008 36.797,32.176 37.063,31.231L34.175,30.419ZM33.64,31.202C33.381,31.397 33.064,31.502 32.74,31.5L32.723,34.5C33.704,34.506 34.661,34.189 35.445,33.598L33.64,31.202ZM32.731,31.5L14.769,31.5L14.769,34.5L32.731,34.5L32.731,31.5ZM14.76,31.5C14.436,31.502 14.119,31.397 13.86,31.202L12.055,33.598C12.839,34.189 13.796,34.506 14.777,34.5L14.76,31.5ZM13.86,31.202C13.601,31.007 13.413,30.732 13.325,30.419L10.437,31.231C10.703,32.176 11.271,33.008 12.055,33.598L13.86,31.202ZM13.323,30.413L6.536,6.675L3.652,7.5L10.439,31.237L13.323,30.413ZM6.536,6.675C6.357,6.048 5.978,5.496 5.457,5.104L3.652,7.5L3.652,7.5L6.536,6.675ZM5.457,5.104C4.936,4.711 4.301,4.499 3.648,4.5L3.652,7.5L3.652,7.5L5.457,5.104ZM3.65,4.5L0.5,4.5L0.5,7.5L3.65,7.5L3.65,4.5Z" fill="#FFFFFF"/>
</svg>
