<svg width="34" height="32" viewBox="0 0 34 32" fill="none" xmlns="http://www.w3.org/2000/svg" xmlns:xlink="http://www.w3.org/1999/xlink">
<path d="M16.688,25.797L24.563,30.797C25.578,31.438 26.828,30.484 26.531,29.313L24.25,20.344C24.189,20.095 24.198,19.834 24.279,19.591C24.359,19.348 24.506,19.132 24.703,18.969L31.766,13.078C32.688,12.313 32.219,10.766 31.016,10.688L21.797,10.094C21.546,10.079 21.304,9.992 21.101,9.842C20.899,9.692 20.744,9.486 20.656,9.25L17.219,0.594C17.128,0.344 16.962,0.128 16.744,-0.025C16.526,-0.178 16.266,-0.26 16,-0.26C15.734,-0.26 15.474,-0.178 15.256,-0.025C15.038,0.128 14.872,0.344 14.781,0.594L11.344,9.25C11.256,9.486 11.102,9.692 10.899,9.842C10.697,9.992 10.455,10.079 10.203,10.094L0.985,10.688C-0.219,10.766 -0.687,12.313 0.235,13.078L7.297,18.969C7.495,19.132 7.642,19.348 7.722,19.591C7.802,19.834 7.812,20.095 7.75,20.344L5.641,28.656C5.281,30.063 6.781,31.203 7.985,30.438L15.313,25.797C15.518,25.666 15.757,25.597 16,25.597C16.244,25.597 16.482,25.666 16.688,25.797L16.688,25.797Z" fill="#FA8232"/>
</svg>
