<svg width="42" height="36" viewBox="0 0 42 36" fill="none" xmlns="http://www.w3.org/2000/svg" xmlns:xlink="http://www.w3.org/1999/xlink">
<path d="M20,34.5L19.267,35.809C19.722,36.064 20.278,36.064 20.733,35.809L20,34.5ZM1.25,11.25L-0.25,11.25L1.25,11.25ZM20,7.5L18.615,8.077C18.848,8.636 19.394,9 20,9C20.606,9 21.152,8.636 21.385,8.077L20,7.5ZM38.75,11.25L37.25,11.25L38.75,11.25ZM20,34.5C20.733,33.191 20.733,33.191 20.733,33.192C20.733,33.191 20.733,33.192 20.733,33.192C20.733,33.191 20.733,33.191 20.732,33.191C20.731,33.19 20.728,33.189 20.725,33.187C20.717,33.183 20.706,33.176 20.69,33.167C20.658,33.149 20.609,33.121 20.545,33.083C20.415,33.007 20.222,32.893 19.974,32.743C19.479,32.441 18.766,31.993 17.908,31.416C16.19,30.259 13.906,28.591 11.628,26.541C6.983,22.36 2.75,16.935 2.75,11.25L-0.25,11.25C-0.25,18.315 4.892,24.515 9.622,28.771C12.032,30.94 14.435,32.694 16.233,33.904C17.133,34.511 17.885,34.983 18.415,35.305C18.68,35.467 18.889,35.59 19.034,35.675C19.107,35.717 19.163,35.75 19.202,35.772C19.222,35.783 19.237,35.792 19.248,35.798C19.254,35.801 19.258,35.804 19.261,35.805C19.263,35.806 19.264,35.807 19.265,35.808C19.265,35.808 19.266,35.808 19.266,35.808C19.267,35.809 19.267,35.809 20,34.5ZM2.75,11.25C2.75,9.343 3.411,7.495 4.62,6.02L2.3,4.118C0.651,6.129 -0.25,8.649 -0.25,11.25L2.75,11.25ZM4.62,6.02C5.829,4.545 7.512,3.534 9.382,3.16L8.794,0.218C6.243,0.729 3.949,2.106 2.3,4.118L4.62,6.02ZM9.382,3.16C11.252,2.786 13.194,3.072 14.878,3.968L16.288,1.32C13.992,0.098 11.344,-0.292 8.794,0.218L9.382,3.16ZM14.878,3.968C16.561,4.864 17.882,6.316 18.615,8.077L21.385,6.923C20.384,4.522 18.583,2.542 16.288,1.32L14.878,3.968ZM21.385,8.077C22.118,6.316 23.439,4.864 25.122,3.968L23.712,1.32C21.417,2.542 19.616,4.522 18.615,6.923L21.385,8.077ZM25.122,3.968C26.806,3.072 28.748,2.786 30.618,3.16L31.206,0.218C28.656,-0.292 26.008,0.098 23.712,1.32L25.122,3.968ZM30.618,3.16C32.488,3.534 34.171,4.545 35.38,6.02L37.7,4.118C36.051,2.106 33.757,0.729 31.206,0.218L30.618,3.16ZM35.38,6.02C36.589,7.495 37.25,9.343 37.25,11.25L40.25,11.25C40.25,8.649 39.349,6.129 37.7,4.118L35.38,6.02ZM37.25,11.25C37.25,16.935 33.017,22.36 28.372,26.541C26.094,28.591 23.81,30.259 22.092,31.416C21.234,31.993 20.521,32.441 20.026,32.743C19.778,32.893 19.585,33.007 19.455,33.083C19.391,33.121 19.342,33.149 19.31,33.167C19.294,33.176 19.283,33.183 19.275,33.187C19.272,33.189 19.269,33.19 19.268,33.191C19.267,33.191 19.267,33.191 19.267,33.192C19.267,33.192 19.267,33.191 19.267,33.192C19.267,33.191 19.267,33.191 20,34.5C20.733,35.809 20.733,35.809 20.734,35.808C20.734,35.808 20.735,35.808 20.735,35.808C20.736,35.807 20.737,35.806 20.739,35.805C20.742,35.804 20.746,35.801 20.752,35.798C20.763,35.792 20.778,35.783 20.798,35.772C20.837,35.75 20.893,35.717 20.966,35.675C21.111,35.59 21.32,35.467 21.585,35.305C22.115,34.983 22.867,34.511 23.767,33.904C25.565,32.694 27.968,30.94 30.378,28.771C35.108,24.515 40.25,18.315 40.25,11.25L37.25,11.25Z" fill="#475156"/>
</svg>
