<svg width="28" height="28" viewBox="0 0 28 28" fill="none" xmlns="http://www.w3.org/2000/svg" xmlns:xlink="http://www.w3.org/1999/xlink">
<path d="M14.55,21.838L20.85,25.838C21.662,26.35 22.662,25.588 22.425,24.65L20.6,17.475C20.551,17.276 20.559,17.067 20.623,16.873C20.687,16.678 20.805,16.506 20.963,16.375L26.612,11.663C27.35,11.05 26.975,9.813 26.012,9.75L18.638,9.275C18.436,9.263 18.243,9.193 18.081,9.073C17.919,8.954 17.795,8.789 17.725,8.6L14.975,1.675C14.902,1.475 14.77,1.302 14.595,1.18C14.421,1.058 14.213,0.992 14,0.992C13.787,0.992 13.579,1.058 13.405,1.18C13.23,1.302 13.098,1.475 13.025,1.675L10.275,8.6C10.205,8.789 10.081,8.954 9.919,9.073C9.757,9.193 9.564,9.263 9.363,9.275L1.987,9.75C1.025,9.813 0.65,11.05 1.387,11.663L7.038,16.375C7.195,16.506 7.313,16.678 7.377,16.873C7.442,17.067 7.449,17.276 7.4,17.475L5.713,24.125C5.425,25.25 6.625,26.163 7.588,25.55L13.45,21.838C13.614,21.733 13.805,21.677 14,21.677C14.195,21.677 14.386,21.733 14.55,21.838Z" fill="#FA8232"/>
</svg>
