<svg width="32" height="28" viewBox="0 0 32 28" fill="none" xmlns="http://www.w3.org/2000/svg" xmlns:xlink="http://www.w3.org/1999/xlink">
<path d="M10.064,27.005C22.14,27.005 28.744,16.994 28.744,8.313C28.744,8.029 28.738,7.746 28.725,7.464C30.01,6.534 31.119,5.382 32,4.063C30.824,4.586 29.558,4.938 28.23,5.097C29.585,4.284 30.626,2.997 31.117,1.463C29.828,2.228 28.418,2.768 26.948,3.058C25.75,1.781 24.044,0.982 22.156,0.982C18.53,0.982 15.59,3.924 15.59,7.551C15.59,8.066 15.647,8.568 15.76,9.049C10.304,8.774 5.465,6.16 2.227,2.185C1.644,3.188 1.337,4.327 1.338,5.487C1.338,7.766 2.497,9.778 4.26,10.955C3.217,10.923 2.197,10.642 1.286,10.134C1.285,10.161 1.285,10.188 1.285,10.217C1.285,13.399 3.548,16.055 6.552,16.657C5.988,16.811 5.406,16.889 4.821,16.888C4.399,16.888 3.987,16.847 3.587,16.77C4.423,19.38 6.847,21.279 9.72,21.333C7.473,23.095 4.643,24.144 1.566,24.144C1.043,24.145 0.52,24.115 0,24.053C2.906,25.917 6.356,27.004 10.064,27.004Z" fill="#FFFFFF"/>
</svg>
