<svg width="24" height="14" viewBox="0 0 24 14" fill="none" xmlns="http://www.w3.org/2000/svg" xmlns:xlink="http://www.w3.org/1999/xlink">
<path d="M23.061,3.061C23.646,2.475 23.646,1.525 23.061,0.939C22.475,0.354 21.525,0.354 20.939,0.939L23.061,3.061ZM12,12L10.939,13.061C11.525,13.646 12.475,13.646 13.061,13.061L12,12ZM3.061,0.939C2.475,0.354 1.525,0.354 0.939,0.939C0.354,1.525 0.354,2.475 0.939,3.061L3.061,0.939ZM20.939,0.939L10.939,10.939L13.061,13.061L23.061,3.061L20.939,0.939ZM13.061,10.939L3.061,0.939L0.939,3.061L10.939,13.061L13.061,10.939Z" fill="#191C1F"/>
</svg>
