<svg width="30" height="30" viewBox="0 0 30 30" fill="none" xmlns="http://www.w3.org/2000/svg" xmlns:xlink="http://www.w3.org/1999/xlink">
<path d="M9.201,14C9.201,11.349 11.349,9.199 14,9.199C16.651,9.199 18.801,11.349 18.801,14C18.801,16.65 16.651,18.8 14,18.8C11.349,18.8 9.201,16.65 9.201,14L9.201,14ZM6.606,14C6.606,18.083 9.916,21.394 14,21.394C18.084,21.394 21.395,18.083 21.395,14C21.395,9.916 18.084,6.605 14,6.605C9.916,6.605 6.606,9.916 6.606,14L6.606,14ZM19.959,6.312C19.959,6.654 20.061,6.988 20.25,7.272C20.44,7.557 20.71,7.778 21.026,7.909C21.341,8.04 21.689,8.074 22.024,8.008C22.359,7.941 22.667,7.777 22.909,7.535C23.151,7.294 23.315,6.986 23.382,6.651C23.449,6.316 23.415,5.968 23.284,5.652C23.154,5.336 22.932,5.066 22.648,4.876C22.364,4.687 22.03,4.585 21.688,4.585L21.688,4.585C21.229,4.585 20.79,4.767 20.466,5.091C20.142,5.415 19.96,5.854 19.959,6.312L19.959,6.312ZM8.182,25.721C6.778,25.657 6.015,25.423 5.508,25.226C4.836,24.964 4.356,24.652 3.852,24.148C3.347,23.645 3.035,23.166 2.775,22.493C2.577,21.986 2.343,21.223 2.279,19.819C2.209,18.301 2.195,17.845 2.195,14C2.195,10.154 2.21,9.7 2.279,8.181C2.343,6.777 2.579,6.015 2.775,5.506C3.036,4.834 3.348,4.354 3.852,3.85C4.355,3.346 4.835,3.033 5.508,2.773C6.015,2.575 6.778,2.341 8.182,2.278C9.7,2.208 10.156,2.194 14,2.194C17.844,2.194 18.301,2.209 19.82,2.278C21.224,2.342 21.986,2.577 22.494,2.773C23.166,3.034 23.646,3.347 24.15,3.85C24.655,4.354 24.966,4.834 25.228,5.507C25.425,6.013 25.659,6.777 25.723,8.181C25.793,9.7 25.807,10.155 25.807,14C25.807,17.846 25.793,18.3 25.723,19.819C25.659,21.223 25.424,21.986 25.228,22.494C24.966,23.166 24.654,23.646 24.15,24.149C23.647,24.652 23.166,24.964 22.494,25.226C21.987,25.424 21.224,25.657 19.82,25.721C18.302,25.791 17.846,25.805 14,25.805C10.155,25.805 9.7,25.791 8.182,25.721L8.182,25.721ZM8.063,-0.313C6.53,-0.243 5.483,0 4.568,0.356C3.621,0.723 2.818,1.216 2.017,2.017C1.215,2.817 0.723,3.62 0.356,4.567C0,5.483 -0.243,6.53 -0.313,8.063C-0.384,9.598 -0.4,10.089 -0.4,14C-0.4,17.91 -0.384,18.401 -0.313,19.936C-0.243,21.47 0,22.516 0.356,23.432C0.723,24.379 1.215,25.183 2.017,25.983C2.818,26.782 3.62,27.275 4.568,27.644C5.484,28 6.53,28.243 8.063,28.312C9.599,28.382 10.089,28.4 14,28.4C17.911,28.4 18.402,28.383 19.937,28.312C21.47,28.243 22.517,28 23.433,27.644C24.38,27.275 25.182,26.783 25.984,25.983C26.785,25.182 27.276,24.379 27.645,23.432C28.001,22.516 28.245,21.469 28.314,19.936C28.383,18.4 28.4,17.91 28.4,14C28.4,10.089 28.383,9.598 28.314,8.063C28.244,6.53 28.001,5.482 27.645,4.567C27.276,3.621 26.784,2.818 25.984,2.017C25.183,1.215 24.38,0.723 23.434,0.356C22.517,0 21.47,-0.245 19.938,-0.313C18.403,-0.383 17.912,-0.4 14.002,-0.4C10.092,-0.4 9.6,-0.384 8.064,-0.313Z" fill="#FFFFFF"/>
</svg>
