<svg width="10" height="18" viewBox="0 0 10 18" fill="none" xmlns="http://www.w3.org/2000/svg" xmlns:xlink="http://www.w3.org/1999/xlink">
<path d="M2.061,-0.561C1.475,-1.146 0.525,-1.146 -0.061,-0.561C-0.646,0.025 -0.646,0.975 -0.061,1.561L2.061,-0.561ZM8.5,8L9.561,9.061C10.146,8.475 10.146,7.525 9.561,6.939L8.5,8ZM-0.061,14.439C-0.646,15.025 -0.646,15.975 -0.061,16.561C0.525,17.146 1.475,17.146 2.061,16.561L-0.061,14.439ZM-0.061,1.561L7.439,9.061L9.561,6.939L2.061,-0.561L-0.061,1.561ZM7.439,6.939L-0.061,14.439L2.061,16.561L9.561,9.061L7.439,6.939Z" fill="#77878F"/>
</svg>
