<svg width="60" height="66" viewBox="0 0 60 66" fill="none" xmlns="http://www.w3.org/2000/svg" xmlns:xlink="http://www.w3.org/1999/xlink">
<path d="M38.173,29.627L10.583,1.96L45.687,22.113L38.173,29.627L38.173,29.627ZM3.38,0.334C1.754,1.185 0.666,2.734 0.666,4.75L0.666,59.918C0.666,61.934 1.754,63.483 3.38,64.334L35.466,32.328L3.38,0.334ZM56.541,28.539L49.178,24.276L40.964,32.34L49.178,40.404L56.692,36.142C58.941,34.353 58.941,30.328 56.541,28.539L56.541,28.539ZM10.583,62.721L45.687,42.568L38.173,35.054L10.583,62.721L10.583,62.721Z" fill="#FFFFFF"/>
</svg>
