<svg width="60" height="66" viewBox="0 0 60 66" fill="none" xmlns="http://www.w3.org/2000/svg" xmlns:xlink="http://www.w3.org/1999/xlink">
<path d="M38.174,29.627L10.583,1.96L45.687,22.113L38.174,29.627L38.174,29.627ZM3.38,0.334C1.755,1.185 0.667,2.734 0.667,4.75L0.667,59.918C0.667,61.934 1.755,63.483 3.38,64.334L35.467,32.328L3.38,0.334ZM56.542,28.539L49.179,24.276L40.964,32.34L49.179,40.404L56.692,36.142C58.942,34.353 58.942,30.328 56.542,28.539L56.542,28.539ZM10.583,62.721L45.687,42.568L38.174,35.054L10.583,62.721L10.583,62.721Z" fill="#FFFFFF"/>
</svg>
