<svg width="58" height="40" viewBox="0 0 58 40" fill="none" xmlns="http://www.w3.org/2000/svg" xmlns:xlink="http://www.w3.org/1999/xlink">
<path d="M10.575,10C9.47,10 8.575,10.895 8.575,12C8.575,13.105 9.47,14 10.575,14L10.575,10ZM55.425,12L57.348,12.549C57.52,11.946 57.4,11.297 57.022,10.796C56.644,10.295 56.053,10 55.425,10L55.425,12ZM48.825,35.1L46.902,34.551L46.9,34.559L48.825,35.1ZM44.975,38L44.987,36L44.975,36L44.975,38ZM21.025,38L21.025,36L21.013,36L21.025,38ZM17.175,35.1L19.1,34.559L19.098,34.55L17.175,35.1ZM8.125,3.45L10.048,2.9L10.048,2.9L8.125,3.45ZM6.2,2L6.2,4L6.202,4L6.2,2ZM2,0C0.895,0 0,0.895 0,2C0,3.105 0.895,4 2,4L2,0ZM10.575,14L55.425,14L55.425,10L10.575,10L10.575,14ZM53.502,11.451L46.902,34.551L50.748,35.649L57.348,12.549L53.502,11.451ZM46.9,34.559C46.783,34.976 46.532,35.342 46.186,35.603L48.593,38.798C49.639,38.01 50.397,36.901 50.75,35.641L46.9,34.559ZM46.186,35.603C45.841,35.863 45.419,36.003 44.987,36L44.963,40C46.272,40.008 47.547,39.585 48.593,38.798L46.186,35.603ZM44.975,36L21.025,36L21.025,40L44.975,40L44.975,36ZM21.013,36C20.581,36.003 20.159,35.863 19.814,35.603L17.407,38.798C18.453,39.585 19.728,40.008 21.037,40L21.013,36ZM19.814,35.603C19.468,35.342 19.217,34.976 19.1,34.559L15.25,35.641C15.603,36.901 16.361,38.01 17.407,38.798L19.814,35.603ZM19.098,34.55L10.048,2.9L6.202,4L15.252,35.65L19.098,34.55ZM10.048,2.9C9.809,2.064 9.303,1.328 8.609,0.805L6.202,4L6.202,4L10.048,2.9ZM8.609,0.805C7.914,0.282 7.068,-0.001 6.198,0L6.202,4L6.202,4L8.609,0.805ZM6.2,0L2,0L2,4L6.2,4L6.2,0Z" fill="#FFFFFF"/>
</svg>
