<svg width="40" height="36" viewBox="0 0 40 36" fill="none" xmlns="http://www.w3.org/2000/svg" xmlns:xlink="http://www.w3.org/1999/xlink">
<path d="M20.131,1.501L20.12,3.001L20.144,3.001L20.131,1.501ZM2,19.501L3.5,19.501L3.5,19.501L2,19.501ZM2,30.001L0.5,30.001L2,30.001ZM2,18.001C1.172,18.001 0.5,18.672 0.5,19.501C0.5,20.329 1.172,21.001 2,21.001L2,18.001ZM38.281,18.001L32.281,18.001L32.281,21.001L38.281,21.001L38.281,18.001ZM32.281,18.001C31.088,18.001 29.943,18.475 29.099,19.319L31.221,21.44C31.502,21.159 31.883,21.001 32.281,21.001L32.281,18.001ZM29.099,19.319C28.255,20.163 27.781,21.307 27.781,22.501L30.781,22.501C30.781,22.103 30.939,21.721 31.221,21.44L29.099,19.319ZM27.781,22.501L27.781,30.001L30.781,30.001L30.781,22.501L27.781,22.501ZM27.781,30.001C27.781,31.194 28.255,32.339 29.099,33.183L31.221,31.061C30.939,30.78 30.781,30.398 30.781,30.001L27.781,30.001ZM29.099,33.183C29.943,34.027 31.088,34.501 32.281,34.501L32.281,31.501C31.883,31.501 31.502,31.343 31.221,31.061L29.099,33.183ZM32.281,34.501L35.281,34.501L35.281,31.501L32.281,31.501L32.281,34.501ZM35.281,34.501C36.475,34.501 37.619,34.027 38.463,33.183L36.342,31.061C36.061,31.343 35.679,31.501 35.281,31.501L35.281,34.501ZM38.463,33.183C39.307,32.339 39.781,31.194 39.781,30.001L36.781,30.001C36.781,30.398 36.623,30.78 36.342,31.061L38.463,33.183ZM39.781,30.001L39.781,19.501L36.781,19.501L36.781,30.001L39.781,30.001ZM39.781,19.501C39.781,16.926 39.272,14.377 38.282,12.001L35.512,13.154C36.35,15.165 36.781,17.322 36.781,19.501L39.781,19.501ZM38.282,12.001C37.291,9.624 35.84,7.467 34.013,5.654L31.9,7.784C33.447,9.318 34.674,11.143 35.512,13.154L38.282,12.001ZM34.013,5.654C32.185,3.841 30.016,2.408 27.631,1.438L26.5,4.217C28.518,5.038 30.353,6.25 31.9,7.784L34.013,5.654ZM27.631,1.438C25.246,0.468 22.693,-0.021 20.119,0.001L20.144,3.001C22.322,2.982 24.482,3.396 26.5,4.217L27.631,1.438ZM20.142,0.001C17.569,-0.018 15.018,0.472 12.636,1.444L13.769,4.222C15.785,3.4 17.943,2.985 20.12,3.001L20.142,0.001ZM12.636,1.444C10.254,2.416 8.087,3.849 6.262,5.662L8.375,7.791C9.92,6.257 11.753,5.044 13.769,4.222L12.636,1.444ZM6.262,5.662C4.436,7.474 2.987,9.63 1.998,12.005L4.767,13.158C5.604,11.149 6.83,9.324 8.375,7.791L6.262,5.662ZM1.998,12.005C1.009,14.381 0.5,16.928 0.5,19.501L3.5,19.501C3.5,17.324 3.931,15.168 4.767,13.158L1.998,12.005ZM0.5,19.501L0.5,30.001L3.5,30.001L3.5,19.501L0.5,19.501ZM0.5,30.001C0.5,31.194 0.974,32.339 1.818,33.183L3.939,31.061C3.658,30.78 3.5,30.398 3.5,30.001L0.5,30.001ZM1.818,33.183C2.662,34.027 3.807,34.501 5,34.501L5,31.501C4.602,31.501 4.221,31.343 3.939,31.061L1.818,33.183ZM5,34.501L8,34.501L8,31.501L5,31.501L5,34.501ZM8,34.501C9.193,34.501 10.338,34.027 11.182,33.183L9.061,31.061C8.779,31.343 8.398,31.501 8,31.501L8,34.501ZM11.182,33.183C12.026,32.339 12.5,31.194 12.5,30.001L9.5,30.001C9.5,30.398 9.342,30.78 9.061,31.061L11.182,33.183ZM12.5,30.001L12.5,22.501L9.5,22.501L9.5,30.001L12.5,30.001ZM12.5,22.501C12.5,21.307 12.026,20.163 11.182,19.319L9.061,21.44C9.342,21.721 9.5,22.103 9.5,22.501L12.5,22.501ZM11.182,19.319C10.338,18.475 9.193,18.001 8,18.001L8,21.001C8.398,21.001 8.779,21.159 9.061,21.44L11.182,19.319ZM8,18.001L2,18.001L2,21.001L8,21.001L8,18.001Z" fill="#5F6C72"/>
</svg>
