<svg width="32" height="32" viewBox="0 0 32 32" fill="none" xmlns="http://www.w3.org/2000/svg" xmlns:xlink="http://www.w3.org/1999/xlink">
<path d="M2.25,14.046L0.75,14.022L0.75,14.046L2.25,14.046ZM2.656,13.125L1.647,12.015C1.64,12.021 1.633,12.027 1.626,12.034L2.656,13.125ZM15.156,1.765L16.165,2.875L16.169,2.872L15.156,1.765ZM16.844,1.765L15.831,2.872L15.835,2.875L16.844,1.765ZM29.344,13.125L30.374,12.034C30.367,12.027 30.36,12.021 30.353,12.015L29.344,13.125ZM29.75,14.046L31.25,14.046L31.25,14.022L29.75,14.046ZM21.25,28.5L21.25,21L18.25,21L18.25,28.5L21.25,28.5ZM21.25,21C21.25,20.27 20.96,19.571 20.445,19.055L18.323,21.176C18.276,21.129 18.25,21.066 18.25,21L21.25,21ZM20.445,19.055C19.929,18.539 19.229,18.25 18.5,18.25L18.5,21.25C18.434,21.25 18.37,21.223 18.323,21.176L20.445,19.055ZM18.5,18.25L13.5,18.25L13.5,21.25L18.5,21.25L18.5,18.25ZM13.5,18.25C12.771,18.25 12.071,18.539 11.555,19.055L13.677,21.176C13.63,21.223 13.566,21.25 13.5,21.25L13.5,18.25ZM11.555,19.055C11.04,19.571 10.75,20.27 10.75,21L13.75,21C13.75,21.066 13.724,21.129 13.677,21.176L11.555,19.055ZM10.75,21L10.75,28.5L13.75,28.5L13.75,21L10.75,21ZM10.75,28.5C10.75,28.433 10.776,28.37 10.823,28.323L12.945,30.444C13.46,29.929 13.75,29.229 13.75,28.5L10.75,28.5ZM10.823,28.323C10.87,28.276 10.934,28.25 11,28.25L11,31.25C11.729,31.25 12.429,30.96 12.945,30.444L10.823,28.323ZM11,28.25L3.5,28.25L3.5,31.25L11,31.25L11,28.25ZM3.5,28.25C3.566,28.25 3.63,28.276 3.677,28.323L1.555,30.444C2.071,30.96 2.771,31.25 3.5,31.25L3.5,28.25ZM3.677,28.323C3.724,28.37 3.75,28.433 3.75,28.5L0.75,28.5C0.75,29.229 1.04,29.929 1.555,30.444L3.677,28.323ZM3.75,28.5L3.75,14.046L0.75,14.046L0.75,28.5L3.75,28.5ZM3.75,14.071C3.749,14.098 3.744,14.125 3.733,14.149L0.987,12.94C0.837,13.281 0.756,13.649 0.75,14.022L3.75,14.071ZM3.733,14.149C3.722,14.174 3.706,14.197 3.686,14.215L1.626,12.034C1.355,12.29 1.138,12.598 0.987,12.94L3.733,14.149ZM3.665,14.235L16.165,2.875L14.147,0.655L1.647,12.015L3.665,14.235ZM16.169,2.872C16.123,2.914 16.062,2.938 16,2.938L16,-0.063C15.313,-0.063 14.651,0.195 14.144,0.659L16.169,2.872ZM16,2.938C15.938,2.938 15.877,2.914 15.831,2.872L17.856,0.659C17.349,0.195 16.687,-0.063 16,-0.063L16,2.938ZM15.835,2.875L28.335,14.235L30.353,12.015L17.853,0.655L15.835,2.875ZM28.314,14.215C28.294,14.197 28.278,14.174 28.267,14.149L31.013,12.94C30.862,12.598 30.645,12.29 30.374,12.034L28.314,14.215ZM28.267,14.149C28.256,14.125 28.251,14.098 28.25,14.071L31.25,14.022C31.244,13.649 31.163,13.281 31.013,12.94L28.267,14.149ZM28.25,14.046L28.25,28.5L31.25,28.5L31.25,14.046L28.25,14.046ZM28.25,28.5C28.25,28.433 28.276,28.37 28.323,28.323L30.445,30.444C30.96,29.929 31.25,29.229 31.25,28.5L28.25,28.5ZM28.323,28.323C28.37,28.276 28.434,28.25 28.5,28.25L28.5,31.25C29.229,31.25 29.929,30.96 30.445,30.444L28.323,28.323ZM28.5,28.25L21,28.25L21,31.25L28.5,31.25L28.5,28.25ZM21,28.25C21.066,28.25 21.13,28.276 21.177,28.323L19.055,30.444C19.571,30.96 20.271,31.25 21,31.25L21,28.25ZM21.177,28.323C21.224,28.37 21.25,28.433 21.25,28.5L18.25,28.5C18.25,29.229 18.54,29.929 19.055,30.444L21.177,28.323Z" fill="#5F6C72"/>
</svg>
