<svg width="54" height="48" viewBox="0 0 54 48" fill="none" xmlns="http://www.w3.org/2000/svg" xmlns:xlink="http://www.w3.org/1999/xlink">
<path d="M26,46L25.023,47.745C25.63,48.085 26.37,48.085 26.977,47.745L26,46ZM1,15L-1,15L1,15ZM26,10L24.154,10.769C24.464,11.515 25.193,12 26,12C26.807,12 27.536,11.515 27.846,10.769L26,10ZM51,15L49,15L51,15ZM26,46C26.977,44.255 26.978,44.255 26.978,44.255C26.978,44.255 26.978,44.255 26.978,44.255C26.978,44.255 26.977,44.255 26.976,44.254C26.974,44.253 26.971,44.252 26.966,44.249C26.957,44.243 26.941,44.235 26.92,44.223C26.878,44.198 26.812,44.161 26.726,44.111C26.553,44.01 26.296,43.858 25.966,43.657C25.305,43.255 24.354,42.658 23.211,41.888C20.92,40.346 17.874,38.121 14.838,35.388C8.644,29.814 3,22.579 3,15L-1,15C-1,24.421 5.856,32.686 12.162,38.362C15.376,41.254 18.58,43.592 20.977,45.206C22.177,46.014 23.18,46.644 23.886,47.074C24.239,47.289 24.519,47.454 24.712,47.567C24.809,47.623 24.884,47.666 24.937,47.696C24.963,47.711 24.983,47.723 24.998,47.731C25.005,47.735 25.01,47.738 25.015,47.74C25.017,47.742 25.019,47.743 25.02,47.743C25.021,47.744 25.021,47.744 25.022,47.744C25.022,47.745 25.023,47.745 26,46ZM3,15C3,12.457 3.881,9.993 5.493,8.026L2.4,5.49C0.201,8.172 -1,11.532 -1,15L3,15ZM5.493,8.026C7.105,6.06 9.349,4.712 11.843,4.214L11.058,0.291C7.658,0.971 4.598,2.809 2.4,5.49L5.493,8.026ZM11.843,4.214C14.336,3.715 16.926,4.096 19.17,5.291L21.05,1.76C17.989,0.13 14.459,-0.389 11.058,0.291L11.843,4.214ZM19.17,5.291C21.415,6.486 23.176,8.422 24.154,10.769L27.846,9.231C26.512,6.03 24.111,3.39 21.05,1.76L19.17,5.291ZM27.846,10.769C28.824,8.422 30.585,6.486 32.83,5.291L30.95,1.76C27.889,3.39 25.488,6.03 24.154,9.231L27.846,10.769ZM32.83,5.291C35.074,4.096 37.664,3.715 40.157,4.214L40.942,0.291C37.541,-0.389 34.011,0.13 30.95,1.76L32.83,5.291ZM40.157,4.214C42.651,4.712 44.895,6.06 46.507,8.026L49.6,5.49C47.402,2.809 44.342,0.971 40.942,0.291L40.157,4.214ZM46.507,8.026C48.119,9.993 49,12.457 49,15L53,15C53,11.532 51.799,8.172 49.6,5.49L46.507,8.026ZM49,15C49,22.579 43.356,29.814 37.162,35.388C34.126,38.121 31.08,40.346 28.789,41.888C27.646,42.658 26.695,43.255 26.034,43.657C25.704,43.858 25.447,44.01 25.274,44.111C25.188,44.161 25.122,44.198 25.08,44.223C25.059,44.235 25.043,44.243 25.034,44.249C25.029,44.252 25.026,44.253 25.024,44.254C25.023,44.255 25.022,44.255 25.022,44.255C25.022,44.255 25.022,44.255 25.022,44.255C25.022,44.255 25.023,44.255 26,46C26.977,47.745 26.978,47.745 26.978,47.744C26.979,47.744 26.979,47.744 26.98,47.743C26.981,47.743 26.983,47.742 26.985,47.74C26.99,47.738 26.995,47.735 27.002,47.731C27.017,47.723 27.037,47.711 27.063,47.696C27.116,47.666 27.191,47.623 27.288,47.567C27.481,47.454 27.761,47.289 28.114,47.074C28.82,46.644 29.823,46.014 31.023,45.206C33.42,43.592 36.624,41.254 39.838,38.362C46.144,32.686 53,24.421 53,15L49,15Z" fill="#FFFFFF"/>
</svg>
