<svg width="18" height="10" viewBox="0 0 18 10" fill="none" xmlns="http://www.w3.org/2000/svg" xmlns:xlink="http://www.w3.org/1999/xlink">
<path d="M16.561,2.061C17.146,1.475 17.146,0.525 16.561,-0.061C15.975,-0.646 15.025,-0.646 14.439,-0.061L16.561,2.061ZM8,8.5L6.939,9.561C7.525,10.146 8.475,10.146 9.061,9.561L8,8.5ZM1.561,-0.061C0.975,-0.646 0.025,-0.646 -0.561,-0.061C-1.146,0.525 -1.146,1.475 -0.561,2.061L1.561,-0.061ZM14.439,-0.061L6.939,7.439L9.061,9.561L16.561,2.061L14.439,-0.061ZM9.061,7.439L1.561,-0.061L-0.561,2.061L6.939,9.561L9.061,7.439Z" fill="#FFFFFF"/>
</svg>
